<svg xmlns="http://www.w3.org/2000/svg" viewBox="20.7 22.1 138.9 238.50000000000003">
  <path d="M 35 75.7 C 32 76.4 29.2 78.7 27 80.7 C 25.4 82.1 22.7 83.1 22.7 85.7 C 22.7 86.6 22.3 88.3 21.9 89.1 C 21.4 89.9 21.7 91.3 21.7 92.2 C 21.7 94.6 21.5 97.1 22.1 99.4 C 23 103.5 29.5 104.4 33 104.4 C 35.4 104.4 37.9 105.4 40.2 104.2 C 42.4 103.2 44.1 101.6 46 100.5 C 47.8 99.5 49.6 98.2 51.3 97.2 A 14 14 0 0 0 53.9 95.2 C 54.6 94.7 54.9 93.5 55.6 92.9 C 56.6 92.1 56.1 87.9 56.1 86.6 C 56.1 84.6 54.7 81.6 53.4 80.1 C 52 78.6 50.6 77.7 49.2 76.4 C 47.8 75.1 45.2 75.7 43.9 74.5 C 43.2 74 41.5 74.1 40.6 74.1 C 39.6 74 38.6 73.4 37.4 73.7 C 35.9 74.2 34.6 76.2 33 76.7 M 26.3 89.9 C 25.2 91.4 24.7 92 24.7 93.9 C 24.7 95.2 26.3 95.3 27.2 94.6 C 28.1 93.8 28 92.5 28 91.4 C 28 90.6 26.7 88.9 26.7 88.9 M 32 88.9 C 32 90.6 29.9 96.6 33.4 95.5 C 34.9 95.1 33.3 89.7 33.3 88.6 M 54 60.8 C 51.7 60.4 51.4 60.4 51.4 62.6 C 51.4 64.2 51.4 64.8 53.2 64.8 C 55.6 64.8 56.5 61.2 54.4 60.2 M 52 54.2 C 50.5 54.2 48.1 53.8 46.6 54.2 C 45.7 54.5 45 55.7 44.4 56.4 C 43.1 58 42.8 61.2 42.8 63.3 C 42.8 65.3 45.2 68 46.9 68.9 C 48.2 69.7 52.4 70.7 53.9 69.9 A 39 39 0 0 1 57 68.4 C 58.2 67.8 58.4 66.7 59 65.9 C 60.5 64.1 60.6 61.1 60.6 58.9 C 60.6 56.9 57.9 54.4 56 54.2 C 54.2 54 49.6 51.8 48.4 54.2 M 70.9 61.2 C 69.4 62.2 68.5 63.2 70.4 64.3 C 71.1 64.7 72.4 64.6 73 64.1 C 75 62.6 72.1 60.9 70.9 60.5 M 71.9 53.2 C 66.1 53.2 62.4 58.3 63.6 64 C 64.2 66.4 66.8 68.8 68.9 69.8 C 70.2 70.5 71.8 70.8 73.2 70.8 C 74.9 70.8 75.6 69.8 77 69.1 C 77.9 68.6 78.9 67.7 79.7 66.9 C 80.4 66.2 80.7 64.6 81.3 64.1 C 82.7 63.1 80.7 57.6 79.8 56.5 C 78.8 55.4 77.8 53.9 76.5 53.1 C 75.5 52.6 73.6 52.9 72.4 52.9 C 70.1 52.9 67.4 53.7 66.3 55.9 M 35.9 75.7 L 42 70.4 C 42.5 70.1 44 68.2 44.2 68.4 M 57.4 53.2 C 58.8 50.6 61.4 49.2 62.7 46.7 C 63.7 45.1 64.6 44.1 66 42.9 C 68.3 40.8 71.1 41.9 74 41.9 C 75.4 41.9 76.7 42.6 78.1 42.6 C 79.5 42.6 80.9 42.6 82.2 43.2 C 83.6 43.8 85 44.2 86.4 44.9 C 87.4 45.5 87.8 46.8 88.4 47.8 C 89.1 49.1 89 50.9 89.9 52.2 C 90.6 53.1 90.4 55.4 91.3 56.2 C 92 56.8 92 59.2 92.4 60.2 C 92.8 61.2 93.1 63.2 93.1 64.2 C 93.1 66.2 94.1 68.4 94.1 70.5 C 94.1 72.5 95.1 74.5 95.1 76.5 C 95.1 79.8 97.4 83 97.4 86.3 C 97.4 88.6 98.2 91.3 98.6 93.6 C 99 96.2 99 99.5 100 101.8 C 100.3 102.4 100.4 103.8 100.4 104.5 C 100.4 105.5 100.9 106.3 101.1 107.3 C 101.5 109.6 101.3 112.1 101.8 114.4 C 102.8 119 103.6 123.7 104.7 128.3 C 105.3 131.3 105.4 134.7 106.9 137.3 C 108.6 140.6 111.4 140.5 114.5 141.9 C 116 142.5 117.2 142.5 118.9 142.5 C 120.5 142.5 121.5 143.2 122.9 143.8 C 124.4 144.4 126.3 144.4 127.9 145 C 129.2 145.5 130.8 145.8 132.2 145.8 C 134.9 145.8 137.7 147.4 139.9 148.6 C 142 149.8 145.2 150.1 145.7 152.9 S 145.7 159.2 145.7 162 C 145.7 163.8 146.1 165.6 146.1 167.3 C 146.1 168.1 146.1 171.3 146.6 171.6 C 147.4 172.3 147.2 174.9 147.6 175.9 C 147.9 176.6 147.6 177.4 147.9 178.1 C 148.2 178.7 148.4 180.1 148.4 180.8 C 148.7 189.7 148.4 198.6 148.4 207.5 C 148.4 212.9 148.7 218.2 148.7 223.5 C 148.7 228 149.4 232.3 149.4 236.8 V 244.8 C 149.4 246.3 149 248.3 149.6 249.7 C 150 250.5 150 252.6 150 253.5 C 150 254.8 150.4 256.2 150.4 257.6 C 150.4 259.6 149.7 259.3 147.9 259.3 C 146.5 259.3 145.5 258.9 144.1 258.9 H 139.9 C 139.1 258.9 136.8 259.9 136.1 259.1 C 135.8 258.7 135.1 258.9 135.1 258.1 C 135.1 257.4 135.8 256.9 136.1 256.3 C 136.5 255.5 137.4 253.8 138 253.3 C 138.7 252.7 139.2 250.3 139.5 249.4 C 140.1 247.9 139.8 246 139.8 244.4 C 139.8 238 139.5 231.7 139.5 225.4 C 139.5 222.1 138.8 218.9 138.8 215.8 C 138.8 214.9 138.8 212.3 138.4 211.8 C 137.6 210.7 136.4 211 135 211 H 106 C 102.7 211 99.6 211.6 96.5 211.6 C 94.4 211.6 94.1 212 94.1 214.1 L 93.8 220.1 C 93.8 224.3 93.5 228.5 93.5 232.6 C 93.5 234.1 94.1 235.6 94.1 237.1 V 242.9 C 94.1 244.6 94.5 245.9 94.5 247.6 V 249.6 C 94.5 250.6 94.8 250.6 95.1 251.2 C 95.5 252 99.2 259.6 97.3 259.6 C 95.7 259.6 94.1 258.9 92.5 258.9 H 87.5 C 86 258.9 80.9 260.5 80.9 257.9 C 80.9 255.6 83.9 253.1 84.5 250.9 A 28 28 0 0 0 85.9 243.2 V 233.8 V 229.3 C 85.9 227.7 85.2 226.2 85.2 224.5 C 85.2 222.1 85 218.5 84 216.3 C 83.5 215.2 83.9 213.6 83.5 212.5 C 83.3 211.7 83.1 209.9 82.6 209.3 C 82.1 208.5 82.8 206.3 82.1 205.7 C 81.3 205.1 81.3 202.3 81.1 201.4 C 79.4 195.3 80.3 188.8 80.3 182.5 V 167.7 C 80.3 163.6 79.6 159.7 79.6 155.7 C 79.6 151.1 78.9 146.7 78.9 142 C 78.9 138 77.9 134.4 77.9 130.4 C 77.9 127.2 77.9 124 77.3 120.9 C 77 119.7 76.7 117.8 76 116.9 C 75.6 116.4 76 114.7 76 114.1 V 107.5 C 76 105.8 75.6 104.1 75.6 102.3 C 75.6 101 74.7 99.7 74.6 98.5 C 74.6 97.9 73.5 94.8 73.1 94.9 C 72.4 95.1 72.1 95.8 71.3 95.9 C 70.9 95.9 69.9 96.2 69.5 96.4 C 68.2 97.1 66.4 96.2 65 96.8 C 64 97.3 62 96.8 60.9 96.8 C 59 96.8 54.5 95.6 54.5 93.2 M 80.5 206.7 V 220.5 C 80.5 224.8 81.5 229.1 81.5 233.5 V 240.7 C 81.5 242.4 82.1 245.3 81.2 246.7 C 80.2 248.4 79.3 250.6 78 252.1 C 76.5 253.8 78.7 255.4 80.3 256 M 80.9 247 H 84.5 M 86.5 250.7 H 96.5 M 132.5 246.7 H 137.8 M 140.8 250.7 H 149.4 M 147.1 153.4 C 147.7 156.2 149.6 159 149.7 161.7 C 149.7 163.2 150.4 164.7 150.4 166.2 C 150.4 167.4 150.1 168.9 150.6 170 C 151.2 171.2 150.6 173 150.7 174.3 C 150.9 175.8 151.5 177.3 151.7 178.9 C 152.1 182.3 153.9 184.2 152.7 187.8 A 21 21 0 0 0 152.7 203.4 C 153 204.2 153.7 205.4 154.8 205.7 C 156.2 206 156.8 204.4 157.4 203.4 C 158.7 200.7 158.6 197.7 158.6 194.8 C 158.6 192.5 157.6 190.5 156.7 188.5 C 156.2 187.5 155.9 186.1 155.7 185 C 155.4 183.7 154.3 182.6 154.3 181.2 C 154.3 179.1 152.8 176.9 152.7 174.6 C 152.7 173.4 152 172.4 152 171.1 C 152 169.7 151.7 168.4 151.7 167 C 151.7 162.1 153.1 154.5 149 151.2 C 147.2 149.8 145.3 151 143.7 149.5 C 143 149 141.1 148.1 140.3 147.8 C 139.3 147.6 138.5 146.8 137.5 146.8 M 69 41.6 V 33.7 C 69 32.9 69.2 31.7 69 30.9 C 69 30.6 66.8 30.4 66.4 29.9 C 65.2 28.5 65 26.5 65 24.8 C 65 23 69 23.1 70.2 23.1 C 72 23.1 73.8 24.3 74.3 25.9 C 74.9 27.8 73.4 29.1 71.7 29.9 C 70.7 30.5 70.7 31.1 71.2 32.4 C 71.6 33.5 71.2 34.8 71.3 36 C 71.5 37.2 71.7 38.1 71.7 39.3 C 71.7 40.3 72.3 40.8 72.3 41.6 M 83.3 42.6 C 83.3 39.8 85.3 37.6 85.5 35 C 85.6 34.4 87.4 30.8 86.8 31.3 C 85.5 32.3 84.8 26.7 84.8 26.1 C 85 24.2 89.1 24.7 90.2 25.1 C 91.8 26.1 93.5 27.1 93.5 29.1 C 93.5 30.2 93.7 30.8 92.9 31.5 C 92.2 32 90.7 31.7 90.2 32.1 C 89.7 32.6 90 34.3 89.4 35 C 88.8 35.7 88.4 36.8 87.9 37.7 C 87.5 38.5 85.1 41.2 85.9 42 M 89.9 44.6 A 21 21 0 0 1 101.9 40 C 103.9 40 104.8 41.5 106.2 42.6 C 106.8 43.1 107.4 44.1 108 44.6 C 108.7 45.4 109.7 46.3 110.3 47.1 C 111.6 48.7 113.8 49.7 115 51.7 C 115.4 52.5 116 53.2 116.6 53.9 C 117.5 54.9 116.1 55.1 115.2 54.9 C 111.4 53.8 107.6 50.9 103.6 50.9 C 101.8 50.9 100 50.2 98.1 50.2 C 97.1 50.2 93.2 50.3 92.4 49.7 C 91.8 49.2 90.5 49.7 90.5 48.4 V 47 C 90.5 46.6 91.3 46.7 91.5 46.4 C 92.2 46 93.9 46.5 94.6 46.4 C 95.6 46.1 96.8 45.8 97.8 45.3 C 99 44.7 102.5 44.4 103.5 45.3 C 104.8 46.5 106.4 47.6 108 48.4 C 109.8 49.4 111.3 50.2 112.7 51.6 C 113.3 52.1 113.9 52.6 114.3 53.2 C 114.4 53.3 116.1 54.6 116.3 54.6 M 67 42 A 23.8 23.8 0 0 0 61.3 35.8 C 60.5 35.1 58.1 34.1 57.1 34 C 55.3 34 53.6 34.2 52.2 35.4 C 51 36.5 48.8 36.5 47.4 37.6 C 44.8 39.7 41.3 40.8 39 43.7 C 38.8 44 37.8 45.3 38.2 45.3 C 39.2 45.3 40.1 45.6 40.9 45.6 C 42.9 45.6 44.6 45.9 46.7 45.9 H 58.9 C 59.8 45.9 61 46.2 61.9 45.9 C 62.4 45.8 63.1 44.7 63.5 44.3 C 65.1 43.1 61.3 41.3 60.2 41 C 58.5 40.6 56.9 40 54.9 40 L 49.3 40.3 C 47.8 40.3 45.9 42 44.3 42.3 C 42.6 42.7 40.6 44 38.9 44 M 98.1 95.6 C 96.6 96.2 94.5 97.2 93.6 98.6 C 93 99.8 92.9 101.4 92.2 102.2 C 91.9 102.7 92 103.2 91.5 103.6 L 90.2 104.6 C 89 106.1 88.5 106.1 88.5 108.1 C 88.5 111.2 91.1 110.8 92.7 112.5 C 93.7 113.4 94.8 114.5 96 115.1 C 97.2 115.6 98.6 115.1 99.8 115.7 M 96.8 124.3 H 90.7 C 89.2 124.3 88.6 124.9 87.3 125.3 C 84.6 126.1 84.3 129.9 84.3 132.3 C 84.3 134.5 86 136 86.6 138 C 87.2 140.3 88.9 142 90.5 143.5 C 92 145 94.4 146 96.3 144.5 C 97.3 143.7 97.6 142.1 98.4 141.2 C 99.3 140.2 100.1 138.8 100.1 137.6 C 100.1 135.1 100.6 132.1 100.1 129.8 C 99.8 128.8 99.5 127.4 99.4 126.3 C 99.4 125.5 97.8 123.2 97.4 124.7 M 80.2 154.4 C 82.5 154.9 85.3 156.7 87.2 158.1 C 87.8 158.6 88.2 159.5 88.8 160 C 90 160.8 89.4 162.3 89.9 163.4 C 91.1 166.1 87.5 166.1 86.3 167.1 C 85.6 167.6 83.8 168.3 82.9 168.3 C 81.9 168.3 80.2 170.3 80.2 169.3 M 86.2 183.5 C 84.9 183.8 84.1 183.9 83.2 184.8 C 82.2 185.8 83 186.8 84.4 186.8 C 85.6 186.8 85.6 186.8 86.4 186.2 C 87.3 185.5 86.2 184.4 85.5 184.2 M 104.4 172.2 C 101.7 172.9 99.5 175.2 97.6 177.1 C 95.8 178.9 96.1 181.1 96.1 183.5 C 96.1 188.1 101.2 190.3 104.9 188.2 C 106.8 187.1 107.3 184 107.9 182.2 C 108.7 180 108.5 177.5 108 175.4 C 107.6 173.7 105 172.4 103.4 172.3 C 102.1 172.2 97.9 171.1 97.1 172.6 M 109.1 147.1 C 107.1 147.6 104.1 149.9 104.1 152.1 V 157.9 C 104.1 159.3 105.9 160.9 107.1 161.4 C 108.8 162.2 110.6 162 112.5 162 C 116 162 119.5 162 122.5 163.4 C 123.5 163.8 124.2 164.3 125.2 164.6 C 125.7 164.8 127.6 165.1 127.9 165.5 C 128.3 166 132.5 165.9 133.2 165.5 C 136.2 164.2 135.2 156.7 133.5 154.5 A 15.4 15.4 0 0 0 123.5 150.1 C 122.5 150.1 121.7 149.5 120.8 149.5 C 118.9 149.5 117.2 148.1 115.2 148.1 C 113 148.1 110.9 147.8 108.7 147.8 C 108 147.8 102.6 148 103.4 148.8 M 144.4 178.2 C 144.4 181.4 145.4 184.3 145.4 187.5 L 145.7 194.6 C 145.7 194.8 139.3 194 138.7 193.6 C 137.7 193.1 136.3 192.7 135.3 192.5 C 134.5 192.2 132.3 191 132.2 190.1 C 132.1 189.4 130.9 188.2 130.6 187.5 C 130.1 186.4 130.7 185 131.6 184.2 L 133.8 181.5 C 134.5 180.5 134.3 179 135 178.1 C 136.5 176.1 139 175.6 141.3 176.3 C 142.3 176.6 142.8 177.8 143.1 178.7 C 143.4 179.8 144.7 180.4 145.1 181.5 M 123.6 208.7 A 28.7 28.7 0 0 0 117.7 199.7 C 116.9 198.8 115.4 197.7 114.2 197.7 C 112.3 197.7 111.5 198.7 109.9 199.4 C 107.5 200.4 105.4 201.8 103.2 203 C 101.8 203.9 100.5 204.6 100.4 206.3 C 100.4 206.8 100 210.5 100.4 209.7 M 148.4 232.1 C 146.9 231.9 144.6 231.2 143.4 232.6 C 143 233.2 143.4 235.6 143.4 236.4 C 143.4 237.5 144.4 239.4 145.1 240.1 C 146.3 241.3 147.4 240.4 148.7 240.4 M 133.2 212.4 C 133.2 217.5 133.9 222.4 133.9 227.6 L 133.7 241.4 C 133.7 242.6 134.2 245.9 133.5 246.8 C 132.5 248.1 132.1 249.4 131.3 250.8 C 130.8 251.8 129.4 254.8 131.4 255 H 133.8 C 134.5 255 135 255.5 135.7 255.5 M 30.7 133 L 30.2 132.9 L 30.1 132.5 V 130.2 L 29.1 129.9 L 28 129.7 A 3 3 0 0 0 27.7 130.7 L 27.6 131 A 11.9 11.9 0 0 1 27.3 132.3 L 27.1 132.8 C 26.6 132.8 26.4 132.7 26.3 132.4 C 26.4 132.2 26.6 131.7 26.7 130.7 L 27.3 127.5 A 162.3 162.3 0 0 1 28.8 120.7 C 29 119.9 29.3 119.4 29.6 119.4 C 29.8 119.4 30 119.4 30.1 119.6 L 30.5 123.1 L 30.8 126.8 L 31 129.5 C 31.2 130.7 31.2 131.7 31.2 132.4 C 31.2 132.8 31 133 30.6 133 Z M 29.7 129.1 H 30 L 29.9 127.1 L 29.5 122.1 V 122 C 29.3 122.1 29.2 122.7 28.9 123.6 A 66.1 66.1 0 0 0 28.1 128.9 C 28.6 129.1 29.1 129.1 29.7 129.1 Z M 36.1 133.3 C 35.7 133.1 35.1 133.1 34.5 133.1 L 33.9 133.3 L 33.5 133.1 A 84.8 84.8 0 0 1 33.5 124.7 V 124.5 V 122.8 C 33.5 121.7 33.7 121.1 34.2 121.1 L 34.5 121.2 L 34.6 121.5 V 122.2 L 34.5 122.9 A 118.7 118.7 0 0 0 34.5 128 V 129.6 L 34.4 131.1 C 34.4 131.9 34.6 132.3 35 132.3 H 35.7 C 36.4 132.3 36.7 132.5 36.7 132.8 C 36.7 132.9 36.7 133 36.5 133.1 L 36.1 133.3 Z M 38.5 133.3 C 38.3 133.3 38.1 133.1 38 133 A 0.7 0.7 0 0 1 37.7 132.6 L 37.9 132.2 L 38.2 132.3 H 38.7 C 38.9 132.3 39.1 132.3 39.2 132.1 L 39.6 131.3 L 39.9 129.8 A 5 5 0 0 0 39.1 127.3 L 38.9 126.9 A 20.8 20.8 0 0 1 37.9 124.9 L 37.7 123.5 C 37.7 122.9 37.8 122.4 38.1 121.8 L 38.6 121.1 L 39.3 120.9 C 39.6 120.9 39.8 120.9 39.9 121.1 C 40.1 121.2 40.2 121.4 40.2 121.6 L 40.1 121.8 L 39.8 121.9 L 39.4 121.8 C 39.1 121.8 38.9 122.1 38.8 122.5 C 38.6 122.9 38.6 123.3 38.6 123.5 L 38.7 124.6 L 39.2 125.6 L 39.6 126.3 L 40.2 127.5 L 40.6 128.6 L 40.7 130 C 40.7 130.7 40.6 131.4 40.2 132 A 2 2 0 0 1 39.5 132.9 C 39.2 133.1 38.9 133.2 38.5 133.2 Z M 44.7 133.3 C 44.4 133.3 44.1 133.3 43.9 133 C 43.6 132.8 43.4 132.6 43.2 132.2 C 42.9 131.5 42.7 130.7 42.6 129.9 A 18 18 0 0 1 42.4 127.1 V 125.1 L 42.6 123.3 C 42.6 122.7 42.8 122.2 43 121.6 C 43 121.4 43.2 121.2 43.3 121.1 L 43.8 120.9 A 3 3 0 0 1 46 121.9 C 46.3 122.2 46.5 122.5 46.6 122.9 L 47 124.4 L 47.1 126 V 128.1 C 47.1 131.6 46.3 133.3 44.7 133.3 Z M 44.7 132.6 L 45.3 132.3 L 45.7 131.6 A 16.6 16.6 0 0 0 46.1 125.9 L 45.9 123.9 V 123.5 A 2 2 0 0 0 45.5 122.3 C 45.2 122 44.9 121.8 44.5 121.8 C 44 121.8 43.8 122.1 43.6 122.5 L 43.5 124 V 126.7 A 34 34 0 0 0 43.8 131.3 C 44 132.1 44.3 132.6 44.7 132.6 Z M 35.5 156 C 35.3 156 35.2 156 35.1 155.8 L 35 155.4 L 34.9 155.1 V 155 A 99.1 99.1 0 0 0 31.7 145.8 V 155 L 31.8 155.1 L 31.9 155.3 C 31.9 155.5 31.9 155.6 31.7 155.7 L 31.3 155.9 C 31 155.9 30.8 155.5 30.8 154.8 V 151.8 A 240.4 240.4 0 0 1 30.8 145.3 C 30.8 144.7 31.1 144.3 31.5 143.9 V 144 H 31.6 C 31.9 144 32.3 144.5 32.6 145.4 L 33.6 147.9 L 34.6 151.5 L 34.8 152.2 L 35.5 154.2 C 35.7 151.7 35.8 148.6 35.8 145.1 V 144.9 V 144.6 C 35.8 144.3 35.9 144.1 36.2 144.1 C 36.4 144.1 36.5 144.1 36.6 144.3 L 36.8 144.8 V 146.1 A 142.2 142.2 0 0 1 36.1 155.8 L 35.5 156 Z M 41.3 156.2 C 41 156.2 40.7 156.2 40.4 155.9 C 40.1 155.7 39.9 155.5 39.8 155.1 C 39.4 154.4 39.2 153.6 39.1 152.8 A 18 18 0 0 1 39 150 V 148 L 39.1 146.2 C 39.1 145.6 39.3 145.1 39.5 144.5 L 39.8 144 L 40.3 143.8 A 3 3 0 0 1 42.6 144.8 L 43.2 145.8 L 43.5 147.3 L 43.6 148.9 V 151 C 43.6 154.5 42.9 156.2 41.3 156.2 Z M 41.2 155.5 L 41.8 155.2 C 42 155.1 42.1 154.8 42.2 154.5 A 16.6 16.6 0 0 0 42.6 148.8 L 42.5 146.8 V 146.4 A 2 2 0 0 0 42 145.2 C 41.7 144.9 41.4 144.7 41 144.7 S 40.3 145 40.2 145.4 C 40 145.8 40 146.3 40 146.9 V 149.6 A 34 34 0 0 0 40.3 154.2 C 40.5 155 40.8 155.5 41.2 155.5 Z M 25.4 179.3 C 25 179.3 24.6 179.3 24.3 179.1 C 24.1 179 24 178.8 24 178.7 L 24.1 178.3 L 24.4 178.2 L 24.9 178.3 L 25.4 178.5 L 26 178.2 L 26.5 177.4 A 4.8 4.8 0 0 0 26.5 174.2 C 26.4 173.6 26.2 173 25.9 172.5 L 25.6 171.9 A 120.9 120.9 0 0 1 24.5 169.4 L 24.2 167.7 L 24.4 166.5 L 25.1 165.5 C 25.4 165.2 25.8 165.1 26.2 165.1 C 26.5 165.1 26.7 165.1 26.9 165.3 C 27.1 165.3 27.2 165.5 27.3 165.7 L 27 166.1 C 26.7 166.1 26.5 166.1 26.3 165.9 L 25.7 166.2 A 2 2 0 0 0 25.3 167.6 A 5.8 5.8 0 0 0 25.9 170.3 L 27.2 172.8 A 7 7 0 0 1 27.9 175.8 C 27.9 176.7 27.7 177.4 27.3 178.1 C 27.1 178.5 26.8 178.8 26.5 179 C 26.2 179.2 25.8 179.3 25.5 179.3 Z M 32.7 179.2 C 32.3 179 31.7 179 31.1 179 L 30.5 179.2 L 30.1 179 A 84.8 84.8 0 0 1 30.1 170.6 V 170.4 V 168.7 C 30.1 167.6 30.3 167 30.7 167 L 31 167.1 L 31.2 167.4 V 168.1 L 31.1 168.8 A 118.7 118.7 0 0 0 31 173.9 V 177.1 C 31 177.9 31.1 178.3 31.5 178.3 H 32.3 C 32.9 178.3 33.3 178.5 33.3 178.8 L 33.1 179.1 L 32.7 179.3 Z M 36.8 179.2 C 36.5 179.2 36.2 179.2 36 178.9 C 35.7 178.7 35.5 178.5 35.3 178.1 C 35 177.4 34.8 176.6 34.7 175.8 A 18 18 0 0 1 34.5 173 V 171 L 34.7 169.2 C 34.7 168.6 34.9 168.1 35.1 167.5 C 35.1 167.3 35.3 167.1 35.4 167 L 35.9 166.8 A 3 3 0 0 1 38.1 167.8 L 38.8 168.8 L 39.1 170.3 L 39.2 171.9 V 174 C 39.2 177.5 38.5 179.2 36.8 179.2 Z M 36.8 178.5 L 37.4 178.2 L 37.8 177.5 A 16.6 16.6 0 0 0 38.2 171.8 L 38.1 169.8 V 169.4 A 2 2 0 0 0 37.6 168.2 C 37.3 167.9 37 167.7 36.6 167.7 S 35.9 168 35.7 168.4 L 35.6 169.9 V 172.6 A 34 34 0 0 0 35.9 177.2 C 36.1 178 36.4 178.5 36.8 178.5 Z M 42.2 178.6 V 177.9 V 176.7 A 77.3 77.3 0 0 1 41.7 168 C 41 168 40.6 167.9 40.4 167.7 C 40.2 167.7 40.2 167.5 40.2 167.4 L 40.3 167.2 L 40.7 167 L 42 167.1 L 43.2 167.2 H 43.5 C 43.8 167.2 44 167.4 44 167.6 L 43.9 168 L 43.4 168.1 A 3 3 0 0 1 43 168.1 L 42.6 168 V 168.2 C 42.6 169.2 42.6 171 42.9 173.2 A 62.8 62.8 0 0 1 42.9 178.8 L 42.6 178.9 L 42.2 178.7 Z M 49 178.9 C 48.6 178.9 48.4 177.9 48.4 175.9 V 174 V 173.7 V 173.5 H 47.4 L 46.9 173.4 V 175.4 A 30.8 30.8 0 0 0 46.9 178.4 V 178.9 L 46.4 179.1 C 46.2 179.1 46.1 178.8 46 178.4 A 9 9 0 0 1 45.8 176.6 V 175.2 V 173.2 V 172.8 L 45.9 171.7 A 55.5 55.5 0 0 0 45.8 167.7 L 45.9 167.2 L 46.3 167.1 C 46.7 167.1 46.9 167.4 46.9 168.1 V 170.4 L 46.8 172.6 L 47.8 172.7 H 48.4 V 172.5 A 43.7 43.7 0 0 0 48.2 167.4 C 48.2 167.3 48.2 167.1 48.4 167.1 L 48.8 166.9 L 49.1 167 H 49.3 C 49.3 168.8 49.3 171 49.5 174 L 49.6 178.5 C 49.6 178.6 49.6 178.8 49.4 178.9 L 49 179 Z M 39 191.4 C 39 194.7 38.8 198.1 39 201.4 C 39 203.9 41.6 206 42.5 208 C 44.2 211.9 51 212.5 54.5 211.3 C 59.2 209.5 62.1 205.1 64 200.7 C 65.4 197.6 67.4 194.9 68.8 191.9 M 63.6 191.9 C 64.8 191.5 72.3 188.1 72.3 190.2 V 197.2" stroke="#FF0000" stroke-width="1" fill="none"/>
</svg>