<svg xmlns="http://www.w3.org/2000/svg" viewBox="0.19999999999999996 11.2 160.8 157.8">
  <path d="M 41.7 87.8 C 38.2 88.5 33.7 88.6 30.3 88.6 C 27 88.6 24.1 89.6 20.9 89.8 C 19.6 89.8 18.1 91.5 16.6 91.8 C 15 92.2 14.1 93.8 12.8 94.6 C 10.4 96 8.5 98.3 6.6 100.2 C 4.6 102.2 5 106.4 5 109.2 C 5 112.1 6.5 115.2 8.6 117.2 C 13.6 122.2 21.2 122 27.8 122 C 31.4 122 35 121.6 38.4 121.6 C 40 121.6 41.6 121.1 43.1 120.8 C 44.1 120.6 44.9 120.1 45.9 120 C 46.9 119.8 47.4 118.5 48.6 118.4 C 49.6 118.3 52.4 116.5 53.1 115.8 C 53.6 115.1 54.9 115.2 55.5 114.5 C 56.1 113.8 56.9 113.5 57.5 112.7 C 59.9 110.2 60 106.4 60 103.1 C 60 101.5 60.2 99.3 59.1 98.1 C 57.7 96.4 56.1 95.1 54.7 93.4 C 52.4 91.1 50.3 87.8 46.6 87.8 C 44.6 87.8 42.6 87 40.6 87 H 33.4 C 28.9 87 25.1 89.2 20.9 90.6 M 4.2 106.3 C 4.2 107 3.7 110.4 4.2 111.1 C 4.6 111.6 5 113.3 5 113.9 C 5 116.2 6.5 118.7 6.6 121 C 6.8 123.5 8.1 126 8.6 128.4 C 9 129.8 10.4 131.1 10.7 132.7 A 10 10 0 0 0 12.4 135.7 C 14 137.4 14.8 139.7 16.2 141.7 C 17.3 143.1 20.2 144.4 20.5 146.3 C 20.7 148.5 24.1 148.3 25 149.4 C 26.6 151.4 29.8 152.4 31.8 154.2 C 35 157.2 39.4 160.2 43.7 160.6 C 45.9 160.9 47.8 162.6 50 163.1 C 53.4 163.8 56.6 165.4 60 166.3 C 65.1 167.6 71 168 76.3 168 C 80.3 168 83.9 167.2 87.9 167.2 C 91.3 167.2 94.4 167.4 97.3 165.8 C 99.7 164.4 103.2 162.6 105.2 160.6 C 106.1 159.8 107.4 158.6 108.5 158.3 C 110.3 157.7 111.6 155.5 113.4 155.3 C 115.4 155.1 117.1 154.3 118.9 153.3 C 120.1 152.6 121.3 151.4 122.6 150.9 C 124.8 150.1 127.9 146.6 128.8 144.5 C 130.1 141.7 132.3 139.3 133.8 136.5 C 134.3 135.3 135.1 134.1 135.7 132.9 C 136.2 131.6 137 129.9 137.3 128.6 C 138.4 123.6 139 118.8 139 113.6 C 139 111 138.6 108.6 138.6 105.9 C 138.6 104.2 138.4 100.4 137.3 99.1 C 136.3 97.7 136.7 94.5 135.1 93.2 C 134.3 92.6 132.6 88.6 132.5 87.5 C 132.2 85.4 130.5 82.7 129.8 80.5 C 129.1 78.5 127.8 76.9 126.3 75.4 C 123.5 72.6 118.1 72 114.3 72 C 112.2 72 110.5 72.8 110.5 75.3 C 110.5 77.7 112.3 78.1 114.4 78.6 C 116 78.9 117.7 82 117.8 83.4 C 117.9 84.9 118.7 85.8 119.4 87.1 C 119.7 87.7 120.4 89.1 120.9 89.6 C 121.8 90.3 122.6 94.6 122.7 95.6 C 122.8 97.9 123.9 100.1 123.9 102.4 V 110.8 C 123.9 112.1 122.7 113.2 122.7 114.5 C 122.7 115.5 121.7 115.8 121.5 116.7 C 120.9 119.1 117.7 119.4 115.8 119.4 C 113.5 119.4 110.8 120.8 108.6 121.4 C 107.6 121.7 106.1 121.6 105 121.8 C 104.1 122 102 121.4 101.2 121.9 C 100 122.9 96.4 122.2 94.8 122.2 C 92.8 122.2 93.4 121.8 93.4 120 C 93.4 118.7 93.7 117.8 93.9 116.6 C 94.2 114.8 95 113 95 111.2 V 106.3 C 95 105 95.4 103.8 95.4 102.4 C 95.4 101.6 94.7 100.6 94.6 99.8 C 94.4 96.8 93.3 93.3 93 90.4 C 92.9 89.7 91.9 88.4 91.4 87.8 C 90.7 87 90.8 85.4 90.4 84.5 C 89.8 83.5 89.6 82.5 89.1 81.6 C 88.6 80.6 87.7 80.4 87.1 79.4 C 86.5 77.9 85.3 74.9 83.4 74.9 C 82.1 74.9 77.8 73.6 77 74.9 C 76.4 75.9 75.6 76.6 75.1 77.7 C 74.9 78.2 74.8 81 75.3 81.4 C 76 82 76.4 83.4 77.3 83.8 A 4 4 0 0 1 78.9 85.5 C 79.2 86 78.9 87 79.2 87.5 C 82.1 91 83.2 96.9 83.2 101.4 V 108.8 C 83.2 111 82 113.5 82 115.5 C 82 116.7 79.5 120.1 78.3 120.2 C 77.3 120.2 76.4 121.4 75.5 120.9 C 74.4 120.4 73.2 119.8 72 119.8 C 69.8 119.8 67.6 119 65.3 119 C 64.3 119 59.3 119 58.8 118.4 C 57.8 117.3 57.9 113.1 57.9 111.6 C 57.9 109.2 58.4 107.1 58.4 104.6 M 51 92 V 84 M 66.6 97.7 V 89.7 V 87 L 66.2 89.5 C 65.6 93.1 66.6 96.8 66.6 100.3 C 66.6 103.7 68.4 106.9 68.4 110.3 C 68.4 111.6 69.2 114 70 114.9 C 71 116.1 71 119.6 71 121 M 106 121 C 105 116.6 103.5 111.9 103.5 107.3 C 103.5 105.6 103.2 103.6 103.2 101.7 C 103.2 100.2 103.8 98.7 103.2 97.3 C 102.3 94.9 104.2 92.4 104.2 90.2 C 104.2 87.9 105.2 84.9 106 83 M 95 86 V 89 M 2 68 C 4.5 68.5 6.4 70.1 8.7 70.6 S 13.3 71.6 15.7 71.6 C 16.7 71.6 17.7 72.1 18.6 72.5 C 20 73.1 22.3 73.3 23.9 73.5 C 25.8 73.8 27.9 73.8 29.7 74.2 C 31.4 74.7 34.4 74.6 36 74.6 H 42.3 C 46.7 74.6 50.9 75 55.4 75 C 56.8 75 60.6 74.7 61.5 73.7 C 62.5 72.5 65.7 72.7 67.2 72.7 C 71 72.7 75.3 71.7 79.2 72.4 C 81 72.8 82.7 73.5 84.7 73.5 C 87.1 73.5 89.3 73.9 91.7 73.9 C 93.7 73.9 96 73.5 98.3 73.5 C 99.5 73.5 103.3 74.7 104 73.5 M 120 73 C 123.4 73 127 73.9 130 75.3 L 132 75.8 H 133.1 C 133.4 76.1 132 76.8 132.6 76.8 C 134.6 77.2 136.9 76.8 138.9 76.8 C 145.6 76.8 152.2 76.2 159 76.2 M 160 89 C 158.5 88.8 156.6 88.4 155.1 88.3 C 154.5 88.3 152.3 88.9 151.9 88.5 C 150.8 87.3 147.4 87.3 145.8 87.3 C 143.8 87.3 132.8 86.4 132 87.6 M 119 84.1 C 114 83.9 109.5 84.1 104.6 84.1 C 103.5 84.1 102.6 84.8 101.4 84.8 C 100.3 84.8 99.4 85 98.4 85.2 C 96.4 85.6 95 86 93 86 M 77 86 C 74 85.6 71.2 85.2 68.3 85.2 C 66.3 85.2 64.2 84.4 62.2 84.4 C 57.6 84.4 53 83.2 48.5 83.2 C 44.2 83.2 40.1 81.6 35.7 81.6 C 33.7 81.6 30.9 80.4 28.8 80 L 26 79 C 25.4 79 22.8 78.8 22.5 78.5 C 21.7 77.5 17.8 77.8 16.5 77.2 C 15.5 76.8 13.9 77.2 13.3 76.2 C 12.9 75.6 12 74.3 11.1 74.2 C 9.9 74.2 9.6 73.5 8.5 74.9 C 7.9 75.6 6.7 76.7 5.7 76.7 C 3.5 76.7 2.5 79.5 1.2 76.5 C 0.9 75.8 3.6 74.2 4.2 73.8 C 5 73.2 3.5 72.1 3.1 71.8 C 1.6 70.3 -0.2 69.4 2.1 67.3 C 3.5 66.1 5.5 67.9 6.6 68.7 C 7.8 69.7 11.2 69.8 12.8 69.8 M 77 74.4 C 76.6 74.2 76 73.8 75.6 73.8 L 74.9 73.6 C 74.5 73.3 73.9 73 73.4 73 C 72.1 73 73.4 75 73.4 75.5 C 73.6 75.8 74.4 76.9 73.4 76.5 C 73.1 76.3 72.6 75.9 72.2 75.9 C 71.1 75.9 69.8 76.9 70.8 77.9 C 71.3 78.4 71.8 78.5 72.4 78.6 C 72.6 78.6 73.4 78.9 73.1 78.9 L 72.4 78.4 C 71.4 77.9 69.9 78 70 79.4 C 70 79.6 71.5 80.4 71.8 80.4 L 72.6 80.7 C 72.9 80.8 73.4 80.7 73.7 80.9 C 74.7 81.3 75.4 82 75.9 83 M 110.3 78 C 109.1 78 108 77.7 107.3 76.7 C 106.4 75.5 107.8 75.5 108.6 75.5 C 109 75.5 109.6 75.4 109.9 75.6 L 108.9 74.9 C 108.4 74.7 106.9 73.4 107.9 72.9 C 108.2 72.9 109.4 72.4 109.6 72.6 C 109.8 73 110.7 72.9 110.8 73.4 C 110.9 73.7 111 73.9 111.2 74 C 111.5 74.2 111.1 73.8 111 73.6 C 110.8 73.1 110.4 72.8 110.3 72.3 C 110.2 71.8 110 71.6 110.6 71.3 C 111 70.9 111.6 71 112.1 71 S 113.8 72 114 72.6 M 99 74 A 5 5 0 0 1 100.1 71.5 C 100.4 71.2 100.7 71.2 101.1 71 C 101.5 70.9 101.6 71.3 101.8 71.6 C 102.1 71.9 102.1 73 102.1 73.4 V 72.8 C 102.1 72.5 102.5 72.2 102.6 71.9 C 102.9 71.4 104 70.9 104.3 71.5 C 104.7 72.2 104.7 72.8 104.7 73.5 C 104.7 73.9 104.9 72.9 105.1 72.6 C 105.3 72.3 105.5 72.3 105.9 72.3 C 107.1 72.3 106.7 72.8 107 73.7 M 56 75 C 56.1 74.4 56.4 73.8 56.8 73.4 C 57.3 72.9 57.9 73.6 58 73.9 L 58.2 74.3 C 58.4 74.5 58.5 73.6 58.6 73.5 C 58.9 73.2 58.9 72.5 59.6 72.5 C 60.1 72.5 60.6 72.7 60.8 73.3 V 73.9 L 61.5 72.7 A 2 2 0 0 1 63 72 C 63.4 72 63.7 72.6 63.9 72.8 M 152 86 C 148.4 86 145.2 84.4 141.8 83.5 C 140 83 138 82 136 82 M 113 81 C 111.7 81 109.5 81.3 108.4 80.4 C 108.2 80.2 107.1 80.1 106.8 80.1 L 105 80 M 103 83 C 101 83 99.3 82.3 97.3 82.3 C 96.3 82.3 94.9 82.6 94 82 M 99 78 H 94 M 68 82 C 66.4 82 64.6 82.2 63 81.8 C 61.9 81.5 61 80.6 60 80.2 C 59.5 80 59 79 58.4 79 H 57 M 27 77 L 29.3 77.1 L 30.3 77.3 C 31 77.3 31.7 77.7 32.3 77.7 C 33.6 77.7 35.3 78.1 36.5 78.5 L 37.2 78.8 H 38.6 C 39.9 78.8 41 79.1 42.3 79.3 L 44.5 79.5 C 45.1 79.5 45.5 80 46 80 M 50 79 H 53 M 10 72 H 7 M 143 80 H 145.6 L 147.4 80.1 C 147.9 80.4 149.4 81 150 81 M 34.6 102 C 33.8 101.5 30.9 100.4 30.4 102 C 30.2 103 29.7 104.5 29.2 105.2 C 28.9 105.6 28.9 106.4 29.2 106.8 C 29.6 107.5 30.2 107.3 30.6 107.8 C 31.2 108.2 33.5 107.8 34.2 107.8 C 35.6 107.8 36.6 107 37.8 106.9 C 39.2 106.9 39 104.9 39 103.9 C 39 102.6 37.4 102.5 36.7 101.9 C 35.9 101.2 34.4 101.6 33.4 101 M 29.5 102 C 28.2 103.8 27.2 106 27.2 108.4 L 27 111.4 C 27 112.3 28 113.2 28.1 114 C 28.6 115.7 29.7 118.3 31.9 118.3 C 32.7 118.3 33.5 118.9 34.4 119 C 35.3 119 37.3 117.8 38.1 117.4 C 39.1 117 40.5 117.6 41.5 117 C 42.6 116.4 43 116.2 43 114.7 C 43 112.4 43.1 109.9 42.5 107.7 C 42.3 107.1 41.9 105.7 41.5 105.2 L 40.5 104.2 C 40.1 103.8 39.9 104 39.3 103.7 C 38.6 103.4 37.6 103.1 37 102.7 C 36 101.9 35.2 102 34 102 M 5 102.8 C 8.2 99.8 12.4 99.1 16.7 99.1 C 18.4 99.1 21.7 98.6 22.8 100.1 C 23.2 100.6 23.8 100.8 24 101.5 C 24 101.8 24.2 102.6 24.4 102.8 C 24.9 103.2 25 104.7 25 105.3 C 25 106.1 24 106.3 24 107 C 24 107.2 23.9 108 23.7 108.1 L 22.3 110.1 C 21.7 110.6 21.1 111.4 20.7 112.1 C 20.3 112.9 19.4 113.1 18.9 113.5 C 18.3 114.1 17.4 114.2 16.8 114.7 C 16.5 114.9 16.1 114.9 15.8 115.2 C 15.4 115.5 14.5 116.2 14 116.3 C 13 116.7 12.1 116.9 11 116.9 C 10.2 116.9 9.4 117.2 8.4 116.9 M 15.7 104.7 C 14.7 105.1 14.4 105.3 14.2 106.6 C 14.2 107.3 15.4 106.9 15.7 106.6 C 16.3 106.3 15.7 105.5 15.2 105.6 C 14.6 105.7 15 106.8 15.7 106.5 C 16.1 106.3 16.8 104.9 16.1 104.9 C 15.5 104.9 15.1 105.5 15.1 106.3 C 15.1 106.9 16 105.3 15.2 105.3 C 14.5 105.3 15.2 107.1 15.6 106.6 C 15.9 106.2 15.8 105.1 15.3 105.1 S 14.4 105.7 14.9 106.4 C 15.1 106.8 15.7 105.1 14.9 104.7 C 14.3 104.4 13.9 104.9 14.2 105.8 C 14.5 106.5 15.3 106.5 15.5 105.7 C 15.5 105.1 14.3 103.7 14.1 104.1 C 13.9 104.5 14.1 105.9 14.6 105.2 S 14.8 103.5 14.8 104.3 C 14.8 104.8 15.3 105.8 15.6 105 C 15.9 104.3 14.9 104.2 15 104.9 C 15.1 105.9 15.7 104.7 15.7 104.2 C 15.7 103.6 14.9 104.5 14.9 105 C 14.9 105.8 15.3 105.9 15.9 105.8 C 16.4 105.8 15.8 104.7 15.7 105 C 15.5 105.8 16.7 106 16.1 105.3 C 15.8 104.9 15.1 105 15.1 105.6 C 15.1 108.4 17 105.1 15.9 105.1 C 15.3 105.1 15.4 106.5 16.1 106.3 C 16.7 106.1 16.4 104.1 16.2 104.3 C 16 104.9 16 106.1 16.8 106 C 17.4 106 16.5 104.7 16 104.7 L 15.5 104.9 C 15.5 104.8 15.5 103.9 15.2 104.3 C 14.8 104.7 15.6 105.9 15.9 105.3 M 53.9 93 C 48.7 93 39.5 97.6 44.4 103.7 C 45 104.5 46.6 105.3 47.4 105.7 C 49 106.6 50.4 107 52.1 107 H 54.3 C 55.3 107 55.5 107 56.3 106.4 C 56.9 105.9 57.9 106.2 58.5 105.7 C 59.5 104.7 60.2 104.1 61 102.9 M 50.2 98.9 C 48.8 102.3 52.2 99.3 50.4 98.4 C 49.2 97.7 48.7 101 50.6 100.4 C 51.6 100 50.5 99.2 50.2 99 C 49.5 98.4 49.6 100 49.9 100.4 C 51.2 101.7 51.3 98.2 49.9 98.4 C 49.3 98.4 49.1 100.2 49.8 100.4 C 50.4 100.5 51.1 100.5 50.9 99.8 C 50.8 99.1 50.5 98.1 49.6 98.4 C 49.1 98.4 49.3 100.1 49.9 100.1 C 51.4 100.2 49.9 96.6 48.5 98.6 S 50.3 101.7 50.2 98.9 Z M 50.2 98.9 C 50.2 98.3 49 96.9 48.9 97.9 C 48.9 98.3 49.3 100.7 49.9 99.3 C 50 98.9 50.5 97.3 49.8 97.1 C 49.1 96.9 48.8 97.1 48.6 97.6 C 47.9 99.8 51.2 99.7 49.2 97.8 C 48.1 96.8 48.2 98.9 48.2 99.5 C 48.2 100.5 48.5 101 49.7 100.9 C 50.5 100.9 48.4 98.1 48.4 100.1 C 48.4 102.6 50.9 99.1 48.9 99.1 C 48.3 99.1 47.6 100.8 48 100.5 C 48.5 100.2 48.6 99.2 48.4 99.5 C 47.8 100.1 48.4 101.5 48.1 100 C 48.1 99.7 47.8 100.1 47.7 100.1 C 47.6 100.1 46.7 99.6 47.1 99.6 M 28 50.4 C 26.9 50.4 25.9 50.2 25 49.8 C 24.5 49.5 24.3 49.1 24.3 48.8 C 24.3 48.4 24.3 48.1 24.5 47.8 C 24.7 47.6 25 47.4 25.4 47.4 L 26.8 47.8 L 28 48.2 C 28.6 48.2 29.2 47.9 29.6 47.4 C 30.1 46.9 30.6 46.2 30.8 45.4 A 13 13 0 0 0 31 36.7 C 30.6 35.1 30 33.7 29.2 32.2 L 28.5 30.7 L 26.5 26.9 L 25.5 23.9 A 15 15 0 0 1 24.7 19.4 C 24.7 18.3 24.9 17.2 25.3 16.1 C 25.7 15.1 26.3 14.3 27.1 13.6 C 27.9 12.8 28.9 12.4 30.1 12.4 A 3 3 0 0 1 31.8 12.9 C 32.3 13.2 32.7 13.6 32.9 14.2 L 32.1 15.2 C 31.3 15.2 30.7 15 30.2 14.7 C 29.7 14.7 29.2 15 28.7 15.6 A 5.1 5.1 0 0 0 27.5 19.1 A 15.4 15.4 0 0 0 29.3 26.4 L 32.7 33.1 A 18.5 18.5 0 0 1 34.5 41.3 C 34.5 43.3 34 45.3 33 47.3 C 32.4 48.2 31.7 48.9 30.9 49.5 A 5 5 0 0 1 28 50.4 Z M 47.4 50 C 46.3 49.6 44.9 49.4 43.2 49.5 A 3 3 0 0 1 41.5 49.9 C 41.1 49.9 40.8 49.8 40.5 49.4 C 40.3 49.1 40.1 48.7 40.1 48.4 L 40.4 37.6 L 40.7 26.9 V 26.6 L 40.4 22.1 C 40.4 19.1 40.9 17.5 42 17.5 C 42.4 17.5 42.6 17.6 42.9 17.9 C 43.1 18.1 43.2 18.4 43.2 18.7 V 20.5 C 43 21.3 43 21.9 43 22.3 A 315.9 315.9 0 0 0 43.1 33.9 C 42.9 34.4 42.9 35.1 42.9 35.9 V 36.5 L 42.8 40.3 V 44 C 42.8 46.2 43.2 47.3 44.3 47.3 A 345.6 345.6 0 0 0 46.3 47.3 C 48 47.3 48.9 47.7 48.9 48.7 C 48.9 49 48.8 49.3 48.5 49.5 L 47.5 49.9 Z M 58.5 50.1 C 57.7 50.1 56.9 49.9 56.2 49.3 A 5.7 5.7 0 0 1 54.5 47.3 C 53.5 45.3 52.9 43.1 52.7 40.8 A 48 48 0 0 1 52.3 33.6 V 32.7 V 28.3 L 52.6 23.3 C 52.8 21.8 53.2 20.3 53.7 18.9 C 54 18.2 54.2 17.8 54.6 17.4 C 54.9 17.1 55.3 16.9 55.8 16.9 A 8 8 0 0 1 61.8 19.5 A 11 11 0 0 1 63.5 22.5 A 17 17 0 0 1 64.5 26.2 C 64.7 27.5 64.8 29 64.8 30.5 V 36.3 C 65 45.5 63 50 58.7 50 Z M 58.3 48.1 C 58.9 48.1 59.4 47.9 59.9 47.4 C 60.4 46.9 60.7 46.4 60.9 45.5 C 61.6 43.9 61.9 42.1 62.1 40.2 A 44.2 44.2 0 0 0 61.9 30.3 A 78 78 0 0 1 61.6 24.8 V 24 C 61.6 22.7 61.1 21.7 60.4 20.8 A 3.4 3.4 0 0 0 57.6 19.5 C 56.6 19.5 55.8 20.1 55.5 21.3 C 55.2 22.3 55 23.6 55 25.2 V 30.2 L 54.9 32.4 L 55 37.6 A 42 42 0 0 0 56 44.6 C 56.6 46.9 57.3 48.1 58.3 48.1 Z M 72.9 48.4 V 46.5 L 72.8 44.7 V 43.1 A 723.8 723.8 0 0 1 71.3 19.8 C 69.5 19.7 68.3 19.5 67.8 19.2 C 67.4 18.9 67.2 18.6 67.2 18.3 C 67.2 18.1 67.4 17.8 67.7 17.6 A 2 2 0 0 1 68.7 17.3 C 69.7 17.3 70.7 17.3 72 17.5 L 75.3 17.7 H 76.1 C 77.1 17.7 77.6 18.1 77.6 18.9 C 77.6 19.2 77.4 19.6 77.1 19.9 C 76.8 20 76.4 20.2 76 20.2 C 75.7 20.2 75.3 20.2 74.7 20 L 73.7 19.8 V 20.3 C 73.7 23.2 74 27.7 74.5 33.9 C 75.1 39.8 75.3 44.3 75.4 47.6 C 75.4 48 75.2 48.3 74.8 48.6 C 74.5 48.9 74.1 49 73.8 49 L 72.8 48.4 Z M 90.9 49.1 C 89.9 49.1 89.3 46.5 89.2 41.1 V 38.5 L 89.3 36.2 V 35.6 V 34.7 V 34.5 C 89.1 34.4 89.1 34.3 89.1 34.2 H 88.2 L 86.7 34.1 L 85.1 33.9 V 39.4 A 82 82 0 0 0 85.5 47.2 C 85.5 47.7 85.3 48.2 85.1 48.5 C 84.8 48.9 84.5 49 84.1 49 C 83.5 49 83.1 48.4 82.8 47.3 C 82.5 46 82.4 44.5 82.4 42.5 V 38.6 L 82.5 35.2 V 33.7 V 29.6 A 148.1 148.1 0 0 0 82.3 18.8 C 82.3 18.4 82.3 18.1 82.6 17.8 C 82.9 17.5 83.2 17.4 83.6 17.4 C 84.6 17.4 85.1 18.4 85.1 20.2 V 26.2 L 85 32.2 L 87.6 32.4 H 89.4 V 31.8 C 89.4 30.3 89.4 28 89.1 25 L 88.8 18.2 C 88.8 17.8 88.9 17.5 89.2 17.2 C 89.5 17 89.8 16.9 90.2 16.9 L 91.2 17.1 L 91.6 17.3 C 91.6 21.9 91.8 27.9 92.1 35.5 L 92.6 47.7 C 92.6 48.1 92.4 48.5 92.1 48.7 C 91.7 49 91.4 49.1 90.9 49.1 Z M 100.7 41.9 C 100.4 41.9 100.1 41.5 99.7 40.7 C 99.5 39.9 99.3 38.7 99.3 37 A 99.3 99.3 0 0 1 99.5 29.8 L 99.4 22 L 99.2 14 C 99.2 13.6 99.4 13.1 99.9 12.8 A 2 2 0 0 1 101.2 12.2 C 101.6 12.2 101.8 12.3 102.1 12.5 C 102.3 12.8 102.4 13 102.4 13.4 C 102.4 16.2 102.3 20 102 24.9 A 198.5 198.5 0 0 0 101.4 40 C 101.4 40.8 101.3 41.3 101.2 41.5 C 101.1 41.8 100.9 41.9 100.7 41.9 Z M 99.8 50.1 C 99.5 50.1 99.1 50 98.8 49.6 C 98.4 49.3 98.2 48.8 98.2 48.3 C 98.2 47.7 98.4 47.3 98.8 46.8 C 99.2 46.4 99.7 46.1 100.2 46.1 C 100.8 46.1 101.2 46.4 101.6 46.8 C 102 47.2 102.2 47.8 102.2 48.4 C 102.2 49.6 101.4 50.1 99.8 50.1 Z" stroke="#FF0000" stroke-width="1" fill="none"/>
</svg>