<svg xmlns="http://www.w3.org/2000/svg" viewBox="10 33.7 161 249.7">
  <path d="M 78 89 C 71.6 90.6 67.7 97.7 64 102.5 C 62.4 104.5 61.6 107.4 60 109.5 C 58.4 111.5 57.2 115 55.9 117.5 C 53.3 122.5 52.4 129.2 49.1 133.7 C 48.3 134.9 47.6 137.4 47.1 138.8 L 45.6 142.8 C 45.2 144.6 44.6 146.5 43.9 148.1 C 42.7 150.7 42.2 154 41.6 156.7 C 40.1 163.7 38 171.1 38 178.3 V 190.6 C 38 193.6 38 196.9 38.7 199.6 C 39.5 202.5 38.9 205.6 39.5 208.4 C 39.7 209.6 39.5 210.9 39.8 212.1 C 40.1 213.4 41.2 214.8 41.3 216.1 C 41.3 217.7 40.9 219.7 41.6 221.1 L 42.4 223.9 C 42.8 226 44.2 227.9 44.9 230 M 44.5 183.3 V 190.9 C 44.5 192.4 45.2 193.6 45.2 194.9 C 45.4 197.2 46.3 199.1 46.3 201.4 C 46.3 203.4 47 205.7 47.1 207.6 C 47.3 210.6 47.1 213.7 47.1 216.7 C 47.1 218.7 46.8 220.7 46.7 222.5 C 46.7 224.2 46.6 227.6 45.5 229 A 32.9 32.9 0 0 1 42 233 C 41 234.1 39.1 236 37.7 236.3 C 36 236.6 35.1 237.7 33.2 237.7 C 31.9 237.7 29.5 237.7 28.1 238.1 C 26.5 238.4 27.1 242.4 27.1 243.7 C 27.1 244.7 26.8 245.9 28.1 246.1 C 29.3 246.3 30.8 246.5 31.9 247.1 C 33.3 247.7 35.8 247.8 37.1 247.9 H 42.7 C 46.4 247.9 49.9 246.1 53.5 245.3 C 56.5 244.6 59.5 241.1 61.3 238.9 C 62.8 237.1 64.3 235.4 65.7 233.5 C 67.1 231.8 65.7 229.3 66.8 227.3 C 67.9 225.4 67.4 222.8 68.7 220.8 A 14 14 0 0 0 70.3 214.8 C 70.3 212.2 70 209.9 70 207.4 C 70 205.2 71.3 203.7 71.4 201.7 C 71.6 198.4 71.8 195 71.8 191.7 C 71.8 190.3 71.6 188.7 71.8 187.4 C 72.1 185.9 72.8 184.4 72.9 182.8 C 73.1 179.8 72.9 177.1 72.9 174.1 C 72.9 172.4 73.1 169 72.4 167.4 C 71.4 165.4 72.2 161.8 72.2 159.6 C 72.2 158 71.8 156.3 71.5 154.7 C 71.2 153.1 70.3 151.2 70.3 149.7 C 70.3 147.8 69.7 145.3 69.3 143.4 C 69 142.2 69 139.5 67.8 138.9 M 50.7 249 C 50.7 251.8 52.1 260.7 49.4 262.8 C 48.1 263.8 47.4 266.9 47.1 268.4 C 46.7 269.8 46 271.2 46 272.8 C 46 275.9 46.6 281 50.5 281 C 54 281 57.5 280.6 61 280.6 C 64.6 280.6 68.4 279.9 71.2 282.4 C 74.4 285.2 77 284.3 77 279.9 C 77 278 77 277.1 75.6 275.8 A 10 10 0 0 0 72 273.7 C 67.3 273.4 68 277.8 66.2 280.6 M 76.4 275 C 79.2 275 80.4 275 82.2 276.4 C 83.4 277.3 83.5 279.2 84.6 279.9 C 85.3 280.3 85.1 281.3 84 280.9 C 83.4 280.7 82.4 280.2 81.7 280.2 C 79.8 280.2 78 279.9 76 279.9 M 87.2 278 C 88.6 277.7 90.1 278.2 90.1 276.5 C 90.1 275.8 89.8 274.9 89.1 274.4 C 88.1 273.4 86.6 273.1 85.7 272.2 C 84.7 271.3 82.5 271.2 81.7 270.2 C 80.7 268.8 78.2 269.2 77 268.2 C 75.3 266.8 74.5 267 74.5 264.3 C 74.5 262.5 75.1 260.7 75.2 259 C 75.4 256.9 76.7 254.8 76.7 252.6 C 76.7 251.6 77 250.9 77 249.9 C 77 248.9 76.8 248.4 78 248.9 C 79 249.6 81.6 249.5 82.8 249.5 C 85 249.5 86.8 249.3 88.8 248.8 C 90.6 248.4 92.2 247.8 94.1 247.8 A 11 11 0 0 0 98.9 246.4 C 100.5 245.5 102.7 245.8 104.3 244.8 L 109.4 241.7 C 113.3 239.6 115.9 236.4 118.7 233.2 C 119.3 232.6 120.4 232.1 120.5 231.2 C 120.5 229.7 121.2 228.2 121.5 226.7 C 121.9 225 121.8 223.5 122.4 221.7 C 123 219.7 123 217.7 123 215.7 S 122.4 212 122.3 210.1 C 122.2 208.8 121 206.9 120.3 205.6 C 119.8 204.6 119.7 203.5 119.2 202.6 C 118.8 202 118 201.1 117.9 200.3 C 117.8 198.7 115.5 195.9 114.5 194.6 C 113.4 193.2 113 191.2 111.6 189.9 C 109.2 187.4 107.8 183.5 105.1 181.3 C 104.3 180.7 104.2 179.1 103.8 178.3 C 103.4 177.3 102.8 176.7 102.3 175.8 C 101.4 174.1 100.1 172.6 99.1 170.9 C 98.3 169.4 98.3 167.9 97.6 166.4 C 97.1 165.3 96.6 162.4 95.6 161.6 C 94.6 160.7 95.1 157.8 95.1 156.4 C 95.1 154.4 94.1 152.9 94.1 151 V 139.4 C 94.1 137.4 94.9 135.7 95.1 133.7 C 95.5 131 96.9 128.3 98 125.9 C 98.5 124.5 99.5 123.1 99.9 121.7 C 100.1 120.9 101.1 120.2 101.5 119.5 C 101.9 118.7 102 117.6 102.7 117 C 104.4 115.3 100.6 115.6 99.3 115.6 C 97.5 115.6 95.4 114.6 93.5 114.6 S 89.8 114.3 88 114.2 A 17 17 0 0 1 82.8 113.2 C 82.6 113 81.2 112.8 80.8 112.7 C 80.1 112.5 79.5 112.1 78.9 111.6 C 77.9 110.6 76.3 109.2 75.9 107.8 C 75.7 106.7 74.6 104.4 73.9 103.5 C 73.2 102.7 73.1 100.2 73.1 99 C 73.1 97.4 72.7 95.4 73.9 94.2 C 74.9 93.1 76.4 92.8 77.5 91.6 C 78.2 90.9 79.1 90.4 79.9 89.6 C 80.5 89.1 82.1 88.4 82.5 87.7 C 83.7 85.6 85.8 86.4 87.5 85.7 C 88.8 85.1 91.1 85 92.5 85 H 97.7 C 99.3 85 100.6 86 102.2 86 C 104 86 105.5 86.8 107.1 86.8 C 110.1 86.8 114.1 88.6 115.1 91.9 C 115.7 94.1 117.2 95.3 117.2 97.7 C 117.2 99.4 117.6 101.2 117.6 103.1 C 117.6 106.4 113.1 108.9 110.9 110.7 C 109.4 111.8 107.6 112.5 105.9 113.2 C 104.7 113.8 102.9 115.4 101.6 115.6 C 100.7 115.8 100.2 116.4 99.3 116.4 H 96.6 C 95.6 116.4 92 117.4 91.6 116.4 M 76.6 108 C 79.6 107.5 83.6 105.9 85.3 103.4 C 86.1 102.2 88 101.4 88.8 100 C 89.5 98.9 90.6 96.5 89.6 95.4 C 88.7 94.4 87.2 93.1 85.8 93.1 H 80.1 C 78.9 93.1 75.9 94.1 75.1 95.1 C 74.2 96.1 71.4 96.7 71.4 98.6 C 71.4 100.3 71 102.3 71 104.1 M 82.6 98.5 C 80.9 98.5 80.3 98.3 79.1 99.3 C 78.5 99.8 80.4 99.7 80.6 99.7 C 81.6 99.7 81.6 99.5 81.6 98.5 C 81.5 97.9 80.3 98.6 81.2 99 C 82.4 99.5 83.4 99.7 84.7 99.7 C 85.6 99.7 84.3 99.3 83.9 99.3 C 82.8 99.3 83.2 99 83.5 98.1 C 83.7 97.4 83.5 95.3 83.4 96.2 C 83.2 98.1 81.2 96.6 80.8 98.3 C 80.8 98.7 81.4 98 81.7 97.8 C 82.3 97.2 80.7 97.8 80.5 98.1 C 80.1 99 80.6 99.3 81.3 99.3 C 81.3 99.3 81.1 99.6 81.2 99.9 C 81.3 100.4 81.6 99.4 81.7 99.3 C 82.5 98.9 81.7 98.9 81.9 98.9 C 82.9 98.9 82.6 98.2 82.6 97.4 M 97.1 95.4 C 94.6 95.4 93.2 97.4 92.1 99.4 C 90.8 101.6 91.5 103.9 90.8 106.2 C 90.5 107 89.8 108.1 90.1 109.1 C 90.5 110.1 91.9 111.7 93.1 111.7 C 94.4 111.7 99 112.4 100 111.7 C 101.7 110.3 103.6 109.5 104.7 107.7 C 105.2 106.7 104.9 105.2 104.9 104.2 S 104.2 102.2 104.2 101.2 C 104.2 99.6 101.4 97.1 100.1 96.3 C 98.4 95.3 95.5 94 94.1 96 M 93.5 97.4 C 94.3 100.6 95.6 101 98.8 101 C 99.8 101 100.3 100 100.7 99.2 C 101.3 97.8 101 97.5 99.9 96.5 C 98.5 95.4 96.6 95.5 94.9 95.1 C 93.1 94.6 92.1 96.9 91 97.4 M 113.3 107.3 C 110.2 105.5 105.5 103.4 105.3 99.5 C 105.1 97.9 104.8 95.5 105.3 94 C 105.9 91.9 109 92 110.8 92 C 113.2 92 114.5 91.8 116.1 93.4 C 117.1 94.4 118 96.4 118 97.9 V 103.7 C 118 104.6 118.1 105.8 117.5 106.5 C 117 107.1 115.9 107.5 115.7 108 M 110 97 C 113.5 102.6 112.4 97.3 111 97.8 C 108.8 98.5 112.3 100 113 100 M 94 147 C 98.7 150.4 104 154 110 154 H 121 C 124.2 154 128 153.9 130.8 152.4 C 133.1 151.1 135.6 150 138.1 149 C 139.2 148.4 141.3 147.5 142.1 146.5 C 142.5 146 143.3 145.8 143.8 145.4 C 144.8 144.6 145.5 143.4 146.6 142.7 C 148.1 141.9 148.8 140.1 150.3 139.3 C 152 138.3 152.5 135.8 153.8 134.5 C 157.2 131.2 158.8 128.4 158.8 123.8 V 119.4 C 158.8 118.5 159.3 115.7 158.8 114.9 C 157.8 113.9 157.8 112 156.8 110.9 C 156.1 110 155.7 109.1 155.1 108.1 C 153.7 105.6 151.2 104.4 148.8 103.2 C 146.9 102.3 142 101 140.2 102.7 C 139.4 103.5 138.4 103.7 137.6 104.5 C 136.6 105.5 135.8 106.7 135.5 108.1 C 135.3 108.8 134.7 109.5 134.7 110.3 C 134.7 111.8 134.3 109.5 134.3 109.5 A 8 8 0 0 1 132.9 106.3 C 132.5 104.8 132.5 103.4 132.5 101.9 C 132.5 99.9 133.5 100.3 134.7 99.4 C 135.3 98.9 138.2 98.9 139 99.4 C 140 99.9 140.9 101 141.4 102.1 M 134.2 95.3 C 132.6 94.2 131.2 93.4 129.6 92.6 C 127.8 91.6 126.6 91.3 127.1 89.3 C 127.4 87.8 127.7 86.8 128.9 85.7 C 130.2 84.4 131.3 84.7 133.1 84.7 C 135.4 84.7 136.5 91.7 136.5 93.7 L 136.9 95.9 C 137.1 96.5 137.7 94.8 138.2 94.2 C 139.2 93 139.1 90.8 139.1 89.2 S 139.8 85.6 139.8 83.9 C 139.8 82.7 140.3 79.9 139.6 79.1 C 138.6 78.1 138.1 76.6 136.6 76.2 C 135 75.7 133.8 76.2 132.2 76.2 C 130.9 76.2 131.2 76.1 131.2 76.9 C 131.2 77.6 131.5 78.7 131.9 79.2 C 132.1 79.4 132.3 81.3 132.4 81.6 C 132.4 82.6 132.7 83.3 132.7 84.3 C 132.7 85.6 133.5 87.9 134.1 89.1 C 134.8 90.3 136.1 92.5 136.1 93.9 M 142.1 83 C 145.4 83.7 147.5 85.7 150.3 87.4 C 151.3 88 152.1 89 153.2 89.6 C 154.2 90.2 156.2 91.4 156.9 92.6 C 158.2 94.8 160.9 96.8 162.6 98.9 L 165.4 102.3 C 166.1 103.1 166.2 105.1 166.9 105.7 C 167.9 106.5 167.9 109.6 167.9 110.7 C 167.9 112.7 168.9 114.3 168.9 116.2 C 169 119.4 170 122.6 170 125.8 C 170 128.7 170 131.8 169.3 134.4 L 165.6 146.1 C 165.3 147.3 163.9 148.6 163.3 149.8 A 52.3 52.3 0 0 1 153.2 160.8 C 150.7 162.8 147.8 164 145.4 165.9 A 20.5 20.5 0 0 1 137.1 169.7 C 134.6 170 132.1 172.2 129.4 172.2 C 126.4 172.2 123.5 173.4 120.7 174.1 C 119.5 174.3 118 174.4 116.7 174.4 C 114.4 174.4 112.3 175 110 175.2 C 107 175.3 104 177 101 177 M 25 247 C 21.6 247 15.5 247.5 13.4 243.5 A 21 21 0 0 1 11 233.3 C 11 230 11.8 232.7 13.5 232.9 C 15 233.1 17.2 234.1 18.5 234.7 C 19.9 235.3 22.3 235.8 23.6 235.9 C 24.6 235.9 25.2 236 26 236.5 C 26.8 237 25 236.3 24.6 236 C 23 234.7 21.4 235.4 20.5 233.3 C 20.2 232.7 20.5 227.3 20.5 227.3 C 21.8 227.3 24.5 230.3 25.5 231.3 C 26.1 232.1 27 232.8 27.8 233.4 C 28.2 233.7 29 234.8 29.4 234.8 C 30.1 234.8 31.1 234.8 31.6 235.4 C 32 235.8 32.5 232.8 32.6 232.5 C 33.2 231.1 32.6 228.4 32.6 226.8 C 32.6 225.1 32.8 226.5 33.2 227.4 L 34.6 230.2 C 35.4 231.9 36.6 233.8 37 235.5 M 89.7 251 C 89.7 253.9 89.4 256.7 89.3 259.5 V 262.6 C 89.3 263.7 88.4 264.2 89.7 264.7 C 91.8 265.4 93.4 267.4 95.7 267.6 H 101.8 C 103.8 267.6 105.1 265.9 106.8 265.4 C 108.8 264.8 110.4 263.9 112.5 263.9 A 8 8 0 0 1 117.7 265.4 C 119.1 266.2 119.6 269.4 120 270.8 C 120.4 272.2 115.9 271.4 115.2 270.8 A 7.6 7.6 0 0 0 109.8 269 C 108 269 108.8 268.8 108.8 267.4 C 108.8 266 109.7 265.8 108.8 266.9 C 108.5 267.3 108.8 269.6 108.2 269.8 C 107.2 270 106 269.8 105 269.8 C 103.4 269.8 104 270 103.2 271 C 102.7 271.5 102.2 273 101.8 273.6 L 100.5 276 C 99.7 277.6 101.3 277 102.2 277.2 C 103 277.3 107.7 278.9 107.7 277.3 C 107.7 275.6 107.7 271.4 105.9 270.5 M 110.1 275.9 C 111.1 275.9 116 276.5 116 275 C 116 273.9 115.7 271 114.2 271 C 112.7 270.9 111.5 270.2 109.8 270.2 C 107.8 270.2 106.8 269.6 105 270.6 M 62.5 61.5 C 61.9 61.8 61.4 61.7 60.9 61.2 L 57.9 55.5 C 56.9 53.5 55.8 50.8 54.5 47.7 L 54 46.4 A 45.5 45.5 0 0 0 50.8 40.1 C 49.2 37.6 48 36.6 47.2 37.1 C 46.7 37.5 46.8 38.2 47.6 39.4 C 47.8 39.7 48.3 40.4 49.3 41.4 L 49.2 41.8 C 49 42.5 48.8 42.9 48.6 43.1 C 47.8 43.6 46.9 42.9 45.7 41.1 L 45.5 40.7 A 8 8 0 0 1 44.5 38.7 V 37 A 3 3 0 0 1 45.9 35.3 A 4 4 0 0 1 47.6 34.7 C 48.2 34.7 48.7 34.7 49.3 34.9 C 50.1 35.3 51 36.1 51.9 37.3 L 52.9 38.8 C 54.4 41.2 55.7 44.1 56.6 47.4 A 47.2 47.2 0 0 0 63.4 60.8 L 62.6 61.4 L 62.5 61.6 Z M 65.4 66 C 64.9 66.3 64.5 66.3 64.1 66.2 C 63.6 66.1 63.2 65.8 63 65.4 C 62.7 65.1 62.7 64.6 62.8 64.1 C 62.9 63.5 63.2 63.1 63.6 62.9 C 63.9 62.6 64.3 62.6 64.9 62.8 C 65.4 62.9 65.8 63.1 66 63.5 C 66.6 64.5 66.4 65.4 65.4 66 Z" stroke="#FF0000" stroke-width="1" fill="none"/>
</svg>