<svg xmlns="http://www.w3.org/2000/svg" viewBox="0 0.6000000000000001 161.6 107.80000000000001">
  <path d="M 24 8 C 27.4 8 30.4 7.7 33.2 6.5 C 36.1 5.2 39.5 5.5 42.7 5.5 C 45.5 5.5 48 4.5 50.8 5.5 C 51.9 5.8 53.1 5.8 54 6.4 L 57 8 M 60.3 6.7 C 57.5 7.3 56 7.4 56 10.7 L 55.7 13.7 C 55.7 15 56.7 15.6 57.3 16.4 C 57.9 17.2 60.3 18.4 61.2 18.7 C 63 19.2 63 22 64.5 22.9 C 65.7 23.7 66.6 24.7 67.3 26.1 A 17 17 0 0 0 70.1 30.2 C 71.5 31.9 73.4 33.7 75.7 32.7 C 76.6 32.3 77.4 31.9 77.7 30.9 C 77.9 29.9 77.7 28.4 78.1 27.5 A 19 19 0 0 0 79 21.7 V 15.7 C 79 13.4 78.9 11 77.8 9 C 77.6 8.6 77.8 8.1 77.6 7.6 C 77.6 7.2 76.8 6.6 76.6 6 C 76.2 5.3 75.6 4 74.8 3.6 C 72.1 1.9 67.8 0.1 64.7 1.6 C 60.7 3.4 57.1 5.6 54 8.9 M 79 13 C 83 13 86.3 11.9 90.2 11.9 H 102.9 C 105.6 11.9 108.5 14.8 110.9 16 C 113.1 17.2 115.9 18.6 117.6 20.3 C 118.4 21.1 118.3 21.4 119.2 21.9 C 120 22.3 120.4 22.9 120.9 23.4 L 123.9 27.2 C 124.7 28.4 125.7 30.4 125.8 31.9 C 125.8 32.6 126.3 33.5 126.5 34.2 C 126.7 35.1 126.3 36.1 126.7 37 C 127.4 38.5 127.2 40.3 127.5 41.9 C 127.9 43.7 127.9 45.7 127.9 47.6 C 127.9 50.9 128.4 54.5 127.3 57.6 C 126.3 60.6 125.3 63 123.7 65.7 C 122.6 67.7 120.1 68.9 118.7 70.7 C 117.5 72.2 118.2 68.4 118.3 67.9 C 118.4 67.5 117.3 70.5 117.3 71.2 C 117.1 74.2 114.8 76.7 114.8 79.6 C 114.8 83.6 113.6 87.6 111.6 91 C 110.9 92.3 105 95 103.8 93.5 C 101.6 90.8 102 87.4 102 84 L 101.7 75 C 101.7 77.1 101.5 79 101 80.8 C 100.8 81.3 96.7 81 96 81 C 94.6 81 87.3 80.7 87.2 82.4 C 87 84.4 89 88.6 90.5 89.8 C 92.2 91.2 95.9 92.9 97.6 90.7 C 99.6 88.1 101.3 86.3 101.3 82.7 C 101.3 82.4 101.5 80.8 101.1 80.7 C 100.7 80.6 98.8 80.5 98.5 80.9 C 98 81.5 94.8 81 93.9 81.5 C 92.6 82 90.7 81.7 89.3 81.7 C 87.6 81.7 86 82.1 84.5 82.1 H 74.5 C 73.1 82.1 71.5 81.7 70 81.7 C 67.7 81.7 67.3 81.5 68.3 79.3 A 17 17 0 0 0 69.5 73.5 C 69.5 72 70.4 70.5 70.8 69.2 C 71.1 68.2 71.1 67.3 70.8 69.1 C 70.8 70.1 70.2 71.2 70.2 72.3 A 34.3 34.3 0 0 1 69 80 C 69 80.3 68.8 82.1 68.6 82.4 C 67.8 83.3 68 85.5 67 86.3 C 66.4 86.8 65.7 88.5 65.1 89.3 C 64.4 90.2 63.7 91.3 62.6 92 C 61.2 92.7 59.7 93 58.2 93 C 56.3 93 55.7 92.5 54.9 90.9 C 54.3 89.5 54.5 87.9 54.1 86.5 C 53.8 85.5 53.9 83 53.3 82.2 C 52.6 81.2 53.1 78.2 53.1 77 V 72.3 M 50 78 C 46.4 77.7 43.7 75 40.5 73.7 C 38.9 73.1 39.3 71.9 38.5 70.8 C 37.7 69.9 37.4 68.6 36.9 67.5 C 36.2 66.1 35.2 65.2 34.1 64.1 C 32.1 62.2 30.1 60.8 27.7 59.4 C 26.7 58.8 24.9 58 24 57.2 C 22.8 56.2 22.4 55.2 21.4 54.2 C 19.7 52.2 19.4 49.7 17.7 47.8 A 9.7 9.7 0 0 1 16.2 43.5 C 16.2 42.5 16.3 39.9 15.8 39.2 C 14.5 37.5 15.2 32.7 15.2 30.4 V 21 M 24 14.3 C 21.6 15.3 20.1 16.3 18.4 18 C 17.4 19.1 15.4 21.2 14.1 21.8 C 12.6 22.4 11.1 24.2 10 25.3 A 33.8 33.8 0 0 0 6 30.3 C 5.5 31 3.5 34.1 3.5 32.6 C 3.5 31.2 2.5 29.3 2.1 28 C 1.7 26.5 2.1 25 1.6 23.5 C 1.3 22.5 1 21.5 1 20.5 C 1 18.5 0.9 17 1.9 15.2 C 2.9 13.4 3.5 11.5 4.5 9.7 C 5.2 8.5 6.5 7.2 7.5 6.1 C 10 3.4 13.2 1.3 16 5 C 17.7 7.2 20.1 7.7 22 9.5 C 23 10.5 23.9 11.9 23.9 13.3 C 23.9 14.2 24 15 23.5 15.7 C 23.1 16.2 22.1 17 22.1 15.8 M 37 70 C 37 73.8 36.7 76.4 39.2 79.4 C 39.7 80 40.4 82.5 40.4 83.3 C 40.5 84.9 41.6 86.4 42.4 87.8 C 43.9 89.9 45.9 91.5 47.6 93.5 C 48.8 95 54 93 54 91.2 M 125 29 C 129.1 29 135 28.3 137.1 24.8 C 138.1 23.1 138.4 17.8 136.9 16.2 C 135.9 15.2 130.5 12.4 129.1 13.9 C 128.1 15.1 127.2 15.7 127.2 17.3 C 127.2 18.8 127.4 20.3 127.6 21.6 C 127.9 23.9 132.9 24.9 134.9 24.9 C 138.5 24.9 141.1 22.5 142.9 19.9 C 144.2 17.8 144.4 14.8 143.3 12.6 C 142.4 10.8 140.7 8.1 138.8 7 M 56.5 32 C 54.4 32 53.1 31.8 51.5 32.6 C 51 32.8 49.2 33.8 50.5 34.4 C 51.6 34.9 53.9 37.6 55.9 36.1 C 57.3 35.1 57.9 31.9 54.3 33.2 C 53.4 33.5 52.8 34.2 53.1 34.8 C 53.4 35.4 55.9 33.8 54.9 33.3 C 52.6 31.9 49.3 35.6 53.9 35.6 C 55.3 35.6 55.3 34.3 55 33.6 C 54.6 32.9 52.6 33.6 52.6 34.4 C 52.6 37.8 58.1 32.7 55.3 32.4 C 54.1 32.2 51.7 33.1 51.7 33.9 C 51.7 34.4 51.5 36.5 53.3 35.4 C 57.3 33 50.9 31.4 51.2 34.1 C 51.3 35.7 57.9 33.8 55.7 32.5 C 54.1 31.5 48.9 33.2 50.8 34.6 C 53 36.3 57 35.3 56 33.1 C 55.3 31.5 49.6 33.3 52.1 35 C 55.8 37.3 57.4 32.6 54.8 32.6 C 51.4 32.6 51.7 36.1 54.1 36.8 C 56.1 37.4 56.5 36.5 56.5 35.4 C 56.5 34.4 55.5 34.1 54.1 33.8 M 23.1 35.2 C 23.5 34.2 24.7 31.6 23.3 30.8 C 22.1 30.1 21.5 30.6 20.6 31.6 C 18.8 33.4 21.6 36.3 23.4 34.7 C 25.1 33.1 23.7 29.4 22.1 32 C 21.8 32.6 20.7 33.6 21.6 34.4 C 22.6 35.3 24.1 37 25.3 35.2 C 26.3 33.9 28.3 30 24.9 30 C 22.9 30 21.5 32.9 22.9 34.6 C 24.7 36.9 28.2 32.6 26.6 31 C 24.9 29.4 21.8 30.6 21.8 32.8 C 21.8 36.1 26.3 31.8 24.3 30.8 C 21.6 29.3 20 31.8 20.1 34 C 20.1 34.8 21.8 35.4 22.5 35.6 C 23.3 35.8 24.3 33.5 24.3 32.8 C 24.3 31.6 24.7 30.4 23.3 30.4 C 21.6 30.4 21.3 31 21.3 32.6 C 21.3 35.8 24.8 36.7 25.6 33.4 C 25.8 32.4 26.2 31.6 24.6 31.6 C 23.9 31.6 22.1 31.3 21.8 32.2 C 21.1 34.7 23.5 35.6 24.9 33.8 C 27.6 30.5 21.6 31.5 20.1 32 M 37.1 34 L 39.1 34.2 C 39.6 34.2 40.4 34.2 40.9 34.4 L 41.9 34.7 C 42.1 34.8 42.5 35.1 42.8 35.1 C 43.2 35.1 44 35.9 44.4 36.1 C 46.4 37.1 47 39.7 47 41.8 V 43.4 C 47 43.9 46.5 44.5 46.3 45 C 45.8 46 44.8 46.5 43.8 47 C 42.7 47.6 41.8 48 40.5 48.4 C 39.5 48.7 38.2 48.4 37.2 48.9 C 36.7 49.1 35.9 48.9 35.4 48.9 C 34.8 48.9 34.3 48.7 33.7 48.6 C 32.9 48.5 31.1 47.6 30.7 46.8 L 29.6 45.6 C 29.2 45.2 29.3 44.5 28.8 44.2 C 28.5 43.9 28.4 43 28.3 42.7 C 28.1 42.2 28 41.6 28 41 C 28 39.9 28.3 39 28.9 38 L 29.8 36.8 C 30 36.4 30.8 36.2 31.2 35.8 C 32.2 35.1 32.9 34.4 34.2 34.4 L 36 34 H 37.7 M 35.2 42.3 C 33.9 41 33 42.8 33 44 C 33 44.8 33.2 44.9 34 44.9 S 35.2 43.1 35.2 42.5 C 35.2 42.1 34.9 41 34.2 41.5 C 33.6 42 33.7 42.8 33.7 43.5 C 33.7 47.3 37.2 42.7 35.6 41.9 C 33.8 41 33.5 44.1 34.6 44.1 C 35.4 44.1 35.6 42.1 35.5 41.6 C 35.5 41.3 35 41 34.7 41 C 34.2 41 34.1 41.2 33.9 41.6 C 33.7 42.2 33.3 44.6 34.2 44.7 C 35.3 44.9 35.9 44.1 35.6 43 C 35.3 42.3 34.3 42.5 34.1 43.1 C 33.9 44.1 34.1 45.1 34.8 43.9 C 35 43.4 35 43.1 35 42.6 C 35 42.2 34.6 42.8 34.5 42.9 V 44.3 C 34.5 44.5 34.6 44.8 34.8 44.6 V 43.4 C 34.8 43 34.4 43.6 34.4 43.8 C 34.4 44.1 34.7 44 34.7 43.7 C 34.7 43.2 34.6 42.9 34 42.9 S 33.4 44.5 33.9 44.7 C 34.9 45.1 34.8 42.6 34.5 42.1 C 33.7 40.9 33.5 42.6 33.5 43.1 C 33.5 43.8 34.2 44.9 34.5 43.6 C 34.5 43.5 35.1 41.3 34.7 41.2 C 33.7 40.9 33.6 42.1 33.6 42.8 C 33.6 43.2 33.9 45.1 34.7 44.1 C 35.1 43.6 35.2 41.9 35 41.3 C 34.7 40.5 33.7 41.7 33.7 42.1 C 33.7 42.6 33.5 44.7 34.4 44.4 C 34.8 44.3 35 43.4 35 43 C 35 42.4 34.6 42.4 34.2 42 C 33.2 41.4 33.5 43.3 33.7 43.9 M 41.6 41.9 C 41.7 41.1 41.8 40.9 41.1 40.5 C 40.3 40.1 40 41.1 40 41.7 C 40 42 40 42.8 40.4 42.9 C 41.1 43 41.4 41.6 41.6 41.1 C 41.6 40.6 41.6 39.9 40.8 40.1 C 40.6 40.1 40.8 41.5 40.8 41.7 C 40.8 42.4 41.1 42.7 41.6 42.8 C 42 43 42 42.7 42 42.3 C 42 41.8 42 41.6 41.5 41.3 C 41.1 41.1 40.7 40.9 40.3 41 C 40 41 40.1 41.7 40.1 42 C 40.1 42.3 40.7 42.5 41 42.5 C 41.7 42.4 41.7 41 41.8 40.5 C 41.8 40 41.6 40 41.3 40.4 S 40.9 41.4 40.9 41.8 C 40.9 42.2 41.1 42.5 41.2 42 C 41.2 41.4 41.2 40.9 40.8 40.5 C 40.2 40.1 39.8 41.8 40.4 41.9 C 40.9 42.1 41.2 40.4 40.7 40.1 C 40.3 39.8 40.3 40.1 40.3 40.6 C 40.3 40.8 40.2 41.8 40.4 41.9 C 40.8 42.1 41 42.1 41.2 41.7 C 41.4 41.4 41.7 40.7 41.3 40.3 C 40.6 39.7 40.4 41.3 40.4 41.6 C 40.4 41.9 40.7 42.2 41.1 42.3 C 41.3 42.5 41.6 41.1 41.6 40.9 C 41.6 39.9 40.6 40.3 40.4 41 C 40.4 41.5 40.4 42.1 40.9 42.3 C 41.5 42.4 41.4 42.3 41.6 41.7 C 41.6 41.5 41.9 40.7 41.6 40.5 C 41.4 40.4 41 40.3 40.8 40.5 C 40.6 40.8 40.6 41.3 40.6 41.7 C 40.6 41.9 41.2 42.1 41.4 41.9 C 41.9 41.4 41.4 39.9 41 41.2 C 41 41.5 40.8 42.2 41 42.6 C 41.2 43 41.7 42.9 41.8 42.5 C 41.9 41.8 41.7 41.5 41.2 41.2 C 41 41 40.5 40.8 40.5 41.2 C 40.5 41.4 40.4 42.4 40.6 42.5 C 41.1 42.5 41.4 42.5 41.4 41.9 C 41.4 41.6 41.5 40.9 41 40.9 C 40.6 40.9 40.5 40.9 40.4 41.3 C 40.3 41.6 40.4 41.9 40.7 42 C 41.1 42 41.2 41.2 41.3 41 C 41.6 40.2 41.1 39.7 40.7 40.6 C 40.4 41.2 40.2 42.8 41 43 C 41.8 43.2 41.8 42 41.8 41.5 C 41.8 41.2 41.3 41 41.1 41 C 40.6 41 40.5 41 40.4 41.5 C 40.4 42 40.2 42.2 40.8 42.5 C 41.4 42.7 41.3 42.1 41.3 41.7 S 41.3 41.2 40.8 41 C 40.5 40.9 40.6 41.5 40.6 41.6 M 139.4 84.3 C 139.2 84.3 138.7 83 138 80.6 L 135.8 72.6 V 78.5 L 135.9 81.1 A 53.4 53.4 0 0 1 135.9 83.9 A 1 1 0 0 1 135.4 84 C 135.2 84 135 84 135 83.7 V 83.2 L 135.1 82.5 A 65 65 0 0 0 134.9 76.9 V 74.6 A 36.7 36.7 0 0 1 135 71.3 V 71 C 135 70.4 135.1 70.1 135.4 70.1 C 135.6 70.1 135.8 70.4 136 70.9 A 145.2 145.2 0 0 1 139 81.8 V 78.8 L 139.1 75.7 V 70.3 C 139.1 70 139.4 69.9 139.7 69.9 S 140.2 70.1 140.2 70.6 L 140.1 71.2 A 148.9 148.9 0 0 1 140 77.9 V 83.4 C 140 83.6 140 83.7 139.8 83.9 C 139.7 84.1 139.6 84.2 139.4 84.2 Z M 144.5 84.3 C 144.2 84.3 143.9 84.3 143.7 84 C 143.4 83.8 143.2 83.6 143 83.2 C 142.7 82.5 142.5 81.7 142.4 80.8 A 18 18 0 0 1 142.2 78.1 V 76.1 C 142.2 75.8 142.2 75.1 142.4 74.3 C 142.4 73.7 142.6 73.2 142.8 72.6 C 142.8 72.4 143 72.2 143.1 72.1 L 143.6 71.9 A 3 3 0 0 1 145.8 72.9 C 146.1 73.2 146.3 73.5 146.4 73.9 L 146.8 75.4 L 146.9 77 V 79 C 146.9 82.5 146.1 84.2 144.5 84.2 Z M 144.5 83.6 L 145.1 83.3 L 145.5 82.6 A 16.6 16.6 0 0 0 145.9 76.9 L 145.7 74.9 V 74.5 A 2 2 0 0 0 145.3 73.3 C 145 73 144.7 72.8 144.3 72.8 C 143.8 72.8 143.6 73.1 143.4 73.5 L 143.3 75 V 76.9 L 143.2 77.7 A 34 34 0 0 0 143.6 82.3 C 143.8 83.1 144.1 83.6 144.5 83.6 Z M 149.9 83.7 V 83 V 81.7 A 77.3 77.3 0 0 1 149.4 73 C 148.7 73 148.2 72.9 148.1 72.7 C 147.9 72.7 147.9 72.5 147.9 72.4 L 148 72.2 L 148.4 72 L 149.7 72.1 L 150.9 72.2 H 151.2 C 151.5 72.2 151.7 72.4 151.7 72.6 S 151.7 72.9 151.5 73 L 151.1 73.1 A 3 3 0 0 1 150.7 73.1 L 150.3 73 V 73.2 C 150.3 74.2 150.3 76 150.6 78.2 A 62.8 62.8 0 0 1 150.6 83.8 L 150.2 83.9 L 149.9 83.7 Z M 160.4 84.2 C 160.1 84.2 159.9 84.2 159.7 84 L 159.5 83.6 L 159.4 81.7 L 159.3 81.4 L 157.5 81.1 L 157.2 82.8 C 157.2 83.3 157 83.8 156.9 83.9 L 156.5 84.1 L 156.1 84 A 0.4 0.4 0 0 1 155.9 83.6 V 83.5 A 80 80 0 0 0 158.2 71.9 H 158.8 C 158.9 71.9 159.1 71.9 159.2 72.1 C 159.3 72.1 159.4 72.2 159.4 72.4 C 159.4 73.3 159.5 74.7 159.8 76.4 A 35.4 35.4 0 0 1 160.3 81.4 L 160.5 82.5 L 160.6 83.6 C 160.6 83.9 160.6 84.1 160.4 84.2 Z M 159.2 80.7 V 80 L 158.8 75.9 L 158.6 74 L 157.6 80.4 L 159.2 80.7 Z M 135.9 107.4 C 135.5 107.4 135.1 107.4 134.8 107.2 C 134.6 107.1 134.5 106.9 134.5 106.8 L 134.6 106.4 L 134.9 106.3 L 135.4 106.4 L 135.9 106.6 L 136.5 106.3 L 137 105.5 A 4.8 4.8 0 0 0 137 102.3 C 136.9 101.7 136.7 101.1 136.4 100.6 L 136.1 100 A 120.9 120.9 0 0 1 135 97.5 L 134.7 95.8 L 134.9 94.6 L 135.6 93.6 C 135.9 93.3 136.3 93.2 136.7 93.2 C 137 93.2 137.2 93.2 137.4 93.4 C 137.6 93.4 137.7 93.6 137.8 93.8 L 137.5 94.2 C 137.2 94.2 137 94.2 136.8 94 L 136.2 94.3 A 2 2 0 0 0 135.8 95.7 A 5.8 5.8 0 0 0 136.4 98.4 L 137.7 100.9 A 7 7 0 0 1 138.4 103.9 C 138.4 104.8 138.2 105.5 137.8 106.2 C 137.6 106.6 137.3 106.9 137 107.1 C 136.7 107.3 136.3 107.4 136 107.4 Z M 143.2 107.3 C 142.8 107.1 142.2 107.1 141.6 107.1 L 141 107.3 L 140.6 107.1 A 84.8 84.8 0 0 1 140.6 98.7 V 98.5 V 96.8 C 140.6 95.7 140.8 95.1 141.2 95.1 L 141.5 95.2 L 141.7 95.5 V 96.2 L 141.6 96.9 A 118.7 118.7 0 0 0 141.5 102 V 105.1 C 141.5 105.9 141.6 106.3 142 106.3 H 142.8 C 143.4 106.3 143.8 106.5 143.8 106.8 L 143.6 107.1 L 143.2 107.3 Z M 147.3 107.3 C 147 107.3 146.7 107.3 146.5 107 C 146.2 106.8 146 106.6 145.8 106.2 C 145.5 105.5 145.3 104.7 145.2 103.8 A 18 18 0 0 1 145 101.1 V 99.1 L 145.2 97.3 C 145.2 96.7 145.4 96.2 145.6 95.6 C 145.6 95.4 145.8 95.2 145.9 95.1 L 146.4 94.9 A 3 3 0 0 1 148.6 95.9 L 149.3 96.9 L 149.6 98.4 L 149.7 100 V 102.1 C 149.7 105.6 149 107.3 147.3 107.3 Z M 147.3 106.6 L 147.9 106.3 L 148.3 105.6 A 16.6 16.6 0 0 0 148.7 99.9 L 148.6 97.9 V 97.5 A 2 2 0 0 0 148.1 96.3 C 147.8 96 147.5 95.8 147.1 95.8 S 146.4 96.1 146.2 96.5 L 146.1 98 V 100.7 A 34 34 0 0 0 146.4 105.3 C 146.6 106.1 146.9 106.6 147.3 106.6 Z M 152.7 106.7 V 106 V 104.7 A 77.3 77.3 0 0 1 152.2 96 C 151.5 96 151.1 95.9 150.9 95.7 C 150.7 95.7 150.7 95.5 150.7 95.4 L 150.8 95.2 L 151.2 95 L 152.5 95.1 L 153.7 95.2 H 154 C 154.3 95.2 154.5 95.4 154.5 95.6 L 154.4 96 L 153.9 96.1 A 3 3 0 0 1 153.5 96.1 L 153.1 96 V 96.2 C 153.1 97.2 153.1 99 153.4 101.2 A 62.8 62.8 0 0 1 153.4 106.8 L 153.1 106.9 L 152.7 106.7 Z M 159.5 107 C 159.1 107 158.9 106 158.9 104 V 102 V 101.7 V 101.5 H 157.9 L 157.4 101.4 V 103.4 A 30.8 30.8 0 0 0 157.4 106.4 V 106.9 L 156.9 107.1 C 156.7 107.1 156.6 106.8 156.5 106.4 A 9 9 0 0 1 156.3 104.6 V 103.2 V 101.2 V 100.8 L 156.4 99.7 A 55.5 55.5 0 0 0 156.3 95.7 L 156.4 95.2 L 156.8 95.1 C 157.2 95.1 157.4 95.4 157.4 96.1 V 98.4 L 157.3 100.6 L 158.3 100.7 H 158.9 V 100.5 A 43.7 43.7 0 0 0 158.7 95.4 C 158.7 95.3 158.7 95.1 158.9 95.1 L 159.3 94.9 L 159.6 95 H 159.8 C 159.8 96.8 159.8 99 160 102 L 160.1 106.5 C 160.1 106.6 160.1 106.8 159.9 106.9 L 159.5 107 Z" stroke="#FF0000" stroke-width="1" fill="none"/>
</svg>