<svg xmlns="http://www.w3.org/2000/svg" viewBox="1.1 8.4 182.5 182.1">
  <path d="M 37.7 26.3 C 38.8 25.1 40.3 24.2 41.6 23.2 C 42.3 22.7 43 21.9 43.6 21.2 C 44.4 20.5 45.6 20.3 46.4 19.7 C 47.2 19.1 48.4 18.4 49.3 18 C 50.2 17.6 50.9 17 51.9 16.5 S 54.2 15.7 55.3 15.1 C 56.3 14.6 57.5 14.1 58.6 13.9 C 60.1 13.5 61.5 12.6 62.8 11.9 C 64.6 10.9 67 9.9 69 9.6 C 71.3 9.2 73.5 8.4 75.8 8.4 C 76.1 8.4 78.7 8.5 77.6 9.4 C 76.9 9.9 76.9 11.2 76.4 11.8 A 4 4 0 0 0 76 13 C 76 13.7 77.2 13.4 77.6 13.4 C 79.3 13.4 80.6 13.6 82.3 13.9 L 87.8 15.1 C 90.2 15.6 86.8 19.6 87.2 19.7 C 88.2 20.1 90.1 19.9 91 20.7 C 91.3 20.9 92 21 92.4 21 C 92.9 21 93.4 21.6 93.9 21.8 C 95.7 22.8 95.8 24.5 95.8 26.4 C 95.8 27.1 96 28.9 96.8 29.2 C 97.8 29.6 98.7 30.9 98.8 31.9 C 99.4 34.2 98.4 36.8 99.7 38.9 C 100.4 40.4 101.5 42.3 101.5 43.9 C 101.5 45.9 100.5 47.5 100.2 49.3 C 99.8 51.3 99.4 53.1 99.2 55 C 98.7 58 98.5 62 96.6 64.4 A 7 7 0 0 0 95.8 67.4 C 95.8 67.8 95.3 69 95.6 68.6 C 95.9 68.1 98.2 69.9 98.6 70.1 C 100.6 71 102.6 71.1 104.6 71.1 S 108.1 70.3 109.9 69.9 C 111.8 69.3 113.6 68.5 115.6 68 C 117.8 67.4 119.6 66 121.7 65.2 C 124.7 64 127.5 62.3 130.7 62.3 C 131.2 62.3 131.3 62.3 131 62.9 C 130.4 63.9 130.2 64.9 129.9 65.9 C 129.2 68.1 128 70.3 127.8 72.6 C 127.8 73.1 127.3 73.6 127.8 73.9 L 129.2 74.9 C 130.5 75.9 133.4 75.6 134.8 75.1 C 135.5 74.9 138.8 73.9 139.4 74.6 C 139.9 75 138.7 78 138.4 78.6 C 138.2 79.3 138 80.3 137.7 80.9 C 137.4 81.5 137.5 82.4 137.2 82.9 C 136.7 83.9 139.8 83.8 140.5 83.8 H 145.5 C 146.9 83.8 148.9 83.8 147.9 85.6 C 147.5 86.4 147.3 87.3 147.1 88.2 C 147.1 88.6 146.7 90.7 146.9 90.9 C 147.3 91.3 149.7 91.3 150.2 91.3 C 151.6 91.5 153.2 91.9 154.6 91.9 C 157.8 91.9 151.9 102.2 151.6 103.6 C 150.7 107.1 148.3 110.4 146.9 113.7 C 146.3 115 145.4 116.2 144.4 117.2 C 143.2 118.6 141.7 119.3 140.4 120.6 C 139 121.9 137.9 123.6 136.6 124.8 L 133.3 128 C 130.5 130.7 127 132.5 124 134.9 A 22.6 22.6 0 0 1 119 137.9 C 116.5 138.9 113.8 139.5 111.4 140.6 A 23 23 0 0 1 107.4 141.8 C 105.2 142.3 103 143.2 100.7 143.8 C 98.3 144.4 95.2 144.7 92.7 144.7 C 91.6 144.7 89.7 144.7 88.7 145.1 M 83.4 134.4 C 83.4 138.1 84.2 141.8 85.1 145.4 C 85.6 147.2 86.2 149.2 86.5 151.1 C 86.5 152.1 86.9 153.1 87.2 154.1 C 87.7 156 87 158.4 87.3 160.3 C 87.7 163.3 88.1 166.1 88.1 169.3 C 88.1 171.8 88.6 174.3 88.6 176.7 C 88.6 177.7 89.4 179.9 88.6 180.7 A 32 32 0 0 1 82.9 184.2 C 81.3 184.9 80.3 186.6 78.9 187.4 M 89.1 180 C 89.1 182.2 89.4 184.5 88.6 186.6 C 88.1 188 86.7 189 86.2 190.5 M 88.6 181.9 C 92.5 181.9 95 183.9 97 186.9 M 90.3 145.6 H 87 M 83.9 145.1 C 81.1 145.1 78.4 144.7 75.7 144.7 C 74.2 144.7 72.5 143.7 71.1 143.7 C 69.1 143.7 67.6 142.3 65.7 142.3 M 64.7 143.3 C 63.1 142.6 61.3 142.3 59.7 141.6 C 58.9 141.2 57.1 140.9 56.2 140.8 C 54.9 140.8 53 140.2 51.9 139.6 C 50.3 138.8 48.9 137.6 47.3 137 C 46.2 136.5 45 135.6 43.9 135.3 C 42.6 134.9 41.4 133.8 40.2 133.2 A 16 16 0 0 1 36.8 130.6 C 35.6 129.3 34.5 127.8 33.2 126.6 A 61.4 61.4 0 0 1 26.2 119.3 A 9.9 9.9 0 0 1 24 115.2 C 23.6 113.7 23.7 112.2 23.5 110.7 L 23.2 107.7 C 23.2 106.6 22.6 105.6 22.2 104.5 C 21.8 103.1 21.8 101.8 21.4 100.4 C 20.9 98.3 20.8 96.3 20.8 94.1 C 20.8 90.7 21.5 87.7 22.3 84.5 C 22.7 82.9 23.5 81.4 24.3 80 L 25 78.7 C 25.2 78.4 25.4 77.3 25.4 78.1 M 32.8 51.6 C 32.8 53.5 33.6 55.2 33.8 57 C 33.8 58.7 34.9 60.2 34.9 61.8 C 34.9 63.4 35.4 64.8 35.4 66.4 L 35.6 70.2 C 35.6 71.2 35.6 72 35.2 72.8 C 34.6 74 33.9 74.4 33.2 75.3 C 32.6 76 31 75.7 30.2 75.7 H 25.6 C 20.6 75.7 15.8 75.1 11.1 73.1 C 10.4 72.8 9.4 72.9 8.9 72.4 C 8.3 71.9 7.3 71.5 6.7 71.2 C 5.4 70.4 4.4 68.8 3.5 67.7 L 2.3 66 L 1.2 64.2 C 0.3 63.2 3.7 60.2 4.5 59.6 C 7.9 56.9 11.5 54.1 14.6 51 C 15.5 50.1 17.6 48.6 18.8 48.5 C 19.8 48.5 20.6 47.9 21.7 48 C 22.1 48 22.7 48.8 23.2 49 C 24.8 49.4 26.2 50.7 27.9 50.9 C 28.7 50.9 29.4 51.4 30.1 51.6 C 30.7 51.6 32.4 51.9 32.6 52.3 M 33.8 60.9 C 29 60.9 23.4 60.2 18.8 61.8 C 16.8 62.5 14.5 63.3 12.4 63.3 C 10.2 63.3 8.2 64 6.1 64 C 5.3 64 1.1 65.2 1.1 65 M 37.4 29.2 C 30.8 26.5 22.3 28.9 19.3 35.7 C 18.6 37.1 18.6 38.8 18.6 40.4 C 18.6 41.7 18.9 42.8 19.1 43.9 C 19.4 46.6 22.8 48.9 24.5 50.6 C 26.5 52.6 31.5 53 33.8 51.8 C 35.8 50.8 37 49.8 38.5 48.4 L 40.2 46.2 C 40.7 45.5 40.6 44.7 40.9 43.9 C 42 40.9 42.7 35.9 41.4 32.9 C 40.4 30.8 40.2 29.7 38.1 28.6 A 7.4 7.4 0 0 0 34.3 27.7 M 33.1 40.1 C 31.6 41.3 32.9 42.1 33.7 40.7 C 34.2 39.9 34.1 38 33 38 C 31.6 38 31.7 38.1 31.7 39.4 C 31.7 39.9 32.4 41.3 33.1 40.6 C 34.1 39.3 31.3 38.7 30.8 38.7 C 29.6 38.7 30.9 40.1 31.8 39.9 C 33 39.6 32.3 38.5 32 39.2 C 31.5 40 32.6 41.1 33.4 41.1 M 57.9 37.5 C 56 37.5 53.7 39.1 52.2 40.4 C 51.7 40.8 51.1 41.1 50.6 41.6 A 11.2 11.2 0 0 0 48 46.2 C 47.5 47.8 47 49.6 47 51.3 V 53.7 C 47 54.6 47.4 55.2 47.4 55.9 C 47.5 56.7 49.2 58.2 49.8 58.8 A 11 11 0 0 0 52.7 60.9 C 54.1 61.6 55.2 61.9 56.7 61.9 H 59.7 C 60.9 61.9 61.7 61.1 62.6 60.9 C 64.2 60.5 65.5 58.4 66.8 57.4 C 68.1 56.4 69.3 55.1 70.5 53.9 C 72.8 51.5 73.2 47.4 72.1 44.3 C 71.4 42 70.9 40.3 69.1 38.8 A 9.7 9.7 0 0 0 65.2 37 C 62.2 36.4 57.9 34.9 55.1 37 M 58.4 50.2 C 57.6 50.9 56.4 53.5 58.5 53 C 59.1 52.9 59.3 51.8 59.1 51.3 C 58.8 50.8 57.4 50.9 58.1 50.9 C 58.7 50.9 59.7 50.3 58.9 49.9 C 58.3 49.5 57.7 49.7 57.9 50.5 C 58 50.8 60.1 50.9 59.8 50 C 59.6 49.5 58.2 49.4 58.4 50.3 C 58.6 50.7 60 50.3 59.3 49.4 C 58.3 48.4 56.1 51.2 58.7 51.1 C 59.7 51.1 59.1 49.7 58.2 49.7 C 57 49.7 56.7 50.1 56.7 51.2 C 56.7 52 57.5 52.2 58 51.5 C 58.6 50.8 56.8 50.7 56.6 51.1 C 55.6 52.7 60 51.3 58.4 51.3 M 71.5 81.4 L 81.5 81.2 C 83.3 81.2 85.1 81.2 86.8 80.8 C 88.4 80.3 90.1 80.3 91.8 79.8 C 93 79.4 94.1 79.3 95.4 79.3 C 97.7 79.3 98.4 81.6 96.8 83.3 C 96 84.3 95.3 86 94.7 87.1 C 94.2 88.1 93.3 89.8 92.4 90.5 C 92.1 90.8 92.1 91.4 91.7 91.7 C 91.2 92.1 92.3 91.7 93 91.9 C 94.4 92.4 95.9 93.4 97.3 93.6 C 99.1 93.8 100.3 94.9 101.7 95.7 C 104 97 102.9 99.5 101.5 100.9 C 100.7 101.6 99.6 102.2 99 103 C 98.8 103.3 100 103.1 100.4 103.3 L 104.2 104.5 C 105.8 105 108.7 105.9 108.8 107.9 C 108.8 110 105.9 111.9 104.3 112.9 C 103.3 113.6 102.3 114.3 101.1 114.9 C 100 115.4 98.1 116.4 96.8 116.5 C 93.5 116.7 90.5 118.6 87.2 118.6 C 84.6 118.6 81.9 119.1 79.3 119.1 C 78.1 119.1 76.9 119.2 75.7 118.9 C 74.7 118.6 73.9 117.7 72.9 117.4 C 72 117.3 70.4 116.2 69.8 115.7 C 68.7 114.7 67.2 114.1 65.9 113.3 C 64.8 112.5 63.4 111.9 62.4 110.9 C 61.6 110.2 60.4 108.4 59.4 108.4 M 63.9 143.2 C 63.3 147.3 63.5 151.7 62.3 155.6 C 61 159.6 60 163.8 58.5 167.6 A 78.8 78.8 0 0 0 55.3 178.6 C 55.2 179.4 54.8 179.3 54.1 179.6 L 51.7 181.4 C 50.9 181.9 50.1 182.6 49.5 183.2 C 49.2 183.5 48.6 184.5 48.9 183.6 M 56 178.6 C 56.4 180.6 57.8 182.8 57.2 185 C 56.8 186.4 55.3 187.9 55.3 189.3 M 55.3 180.3 C 59.3 180.3 62.5 180.7 64.3 184.5 M 108.9 170.3 C 108.7 170.3 108.2 169 107.5 166.6 L 105.3 158.6 V 164.5 L 105.4 167.1 A 53.4 53.4 0 0 1 105.4 169.9 A 1 1 0 0 1 104.9 170 C 104.7 170 104.5 170 104.5 169.7 V 169.2 L 104.6 168.5 A 65 65 0 0 0 104.4 162.9 V 160.6 A 36.7 36.7 0 0 1 104.5 157.3 V 157.1 C 104.5 156.5 104.7 156.2 104.9 156.2 S 105.3 156.5 105.5 157 A 145.2 145.2 0 0 1 108.5 167.9 V 164.9 L 108.6 161.8 V 156.4 C 108.6 156.1 108.9 156 109.2 156 S 109.7 156.2 109.7 156.7 L 109.6 157.3 A 148.9 148.9 0 0 1 109.5 164 V 169.5 C 109.5 169.7 109.5 169.8 109.3 170 C 109.3 170.2 109.1 170.3 108.9 170.3 Z M 114 170.3 C 113.7 170.3 113.4 170.3 113.2 170 C 112.9 169.8 112.7 169.6 112.5 169.2 C 112.2 168.5 112 167.7 111.9 166.9 A 18 18 0 0 1 111.7 164.1 V 162.1 L 111.9 160.3 C 111.9 159.7 112.1 159.2 112.3 158.6 C 112.3 158.4 112.5 158.2 112.6 158.1 L 113.1 157.9 A 3 3 0 0 1 115.3 158.9 L 116 159.9 L 116.3 161.4 L 116.4 163 V 165.1 C 116.4 168.6 115.6 170.3 114 170.3 Z M 114 169.6 L 114.6 169.3 L 115 168.6 A 16.6 16.6 0 0 0 115.4 162.9 L 115.2 160.9 V 160.5 A 2 2 0 0 0 114.8 159.3 C 114.5 159 114.2 158.8 113.8 158.8 C 113.3 158.8 113.1 159.1 112.9 159.5 L 112.8 161 V 163.7 A 34 34 0 0 0 113.1 168.3 C 113.3 169.1 113.6 169.6 114 169.6 Z M 122 170.3 C 121.8 170.3 121.6 170.1 121.5 170 A 0.7 0.7 0 0 1 121.2 169.6 L 121.4 169.2 L 121.8 169.3 H 122.2 C 122.4 169.3 122.6 169.3 122.8 169.1 C 122.9 168.9 123.1 168.6 123.1 168.3 L 123.4 166.8 A 5 5 0 0 0 122.6 164.3 L 122.4 163.9 A 20.8 20.8 0 0 1 121.4 161.9 L 121.2 160.5 C 121.2 159.9 121.4 159.4 121.6 158.8 L 122.1 158.1 L 122.9 157.9 C 123.1 157.9 123.3 157.9 123.5 158.1 L 123.7 158.6 V 158.8 L 123.3 158.9 L 122.9 158.8 C 122.7 158.8 122.5 159.1 122.3 159.5 L 122.1 160.5 C 122.1 160.9 122.1 161.3 122.3 161.6 C 122.3 162 122.5 162.3 122.7 162.6 L 123.1 163.3 L 123.7 164.5 L 124.1 165.6 L 124.3 167 C 124.3 167.7 124.1 168.4 123.8 169 A 2 2 0 0 1 123 169.9 C 122.7 170.1 122.4 170.2 122 170.2 Z M 129 170.3 C 128.5 170.1 128 170.1 127.3 170.1 L 126.7 170.3 L 126.3 170.1 A 84.8 84.8 0 0 1 126.3 161.7 V 161.5 V 159.8 C 126.3 158.7 126.5 158.1 126.9 158.1 L 127.3 158.2 L 127.4 158.5 V 159.2 L 127.3 159.9 A 118.7 118.7 0 0 0 127.3 165 V 165.2 L 127.2 166.6 V 168.1 C 127.2 168.9 127.4 169.3 127.8 169.3 H 128.5 C 129.2 169.3 129.5 169.5 129.5 169.8 C 129.5 169.9 129.5 170 129.3 170.1 L 128.9 170.3 Z M 133 170.3 C 132.8 170.3 132.5 170.3 132.2 170 C 132 169.8 131.7 169.6 131.6 169.2 C 131.2 168.5 131 167.7 130.9 166.9 A 18 18 0 0 1 130.8 164.1 V 162.1 L 130.9 160.3 C 130.9 159.7 131.1 159.2 131.3 158.6 L 131.7 158.1 L 132.1 157.9 A 3 3 0 0 1 134.4 158.9 L 135 159.9 L 135.3 161.4 L 135.5 163 V 165.1 C 135.5 168.6 134.7 170.3 133.1 170.3 Z M 133 169.6 L 133.6 169.3 C 133.8 169.2 133.9 168.9 134 168.6 A 16.6 16.6 0 0 0 134.4 162.9 L 134.3 160.9 V 160.5 A 2 2 0 0 0 133.8 159.3 C 133.5 159 133.2 158.8 132.8 158.8 S 132.1 159.1 132 159.5 L 131.8 161 V 163.7 A 34 34 0 0 0 132.2 168.3 C 132.4 169.1 132.6 169.6 133 169.6 Z M 138.5 169.7 V 169 V 167.7 A 77.3 77.3 0 0 1 137.9 159 C 137.2 159 136.8 158.9 136.6 158.7 L 136.4 158.4 S 136.4 158.2 136.6 158.2 L 137 158 L 138.2 158.1 L 139.4 158.2 H 139.7 C 140.1 158.2 140.3 158.4 140.3 158.6 S 140.3 158.9 140.1 159 L 139.7 159.1 A 3 3 0 0 1 139.2 159.1 L 138.8 159 V 159.2 L 139.1 164.2 A 62.8 62.8 0 0 1 139.2 169.8 L 138.8 169.9 L 138.5 169.7 Z M 145.2 170 C 144.8 170 144.6 169 144.6 167 V 165 V 164.7 V 164.5 H 143.7 L 143.1 164.4 V 166.4 A 30.8 30.8 0 0 0 143.2 169.4 L 143.1 169.9 L 142.7 170.1 C 142.4 170.1 142.3 169.8 142.2 169.4 A 9 9 0 0 1 142 167.6 V 166.2 L 142.1 164.9 V 164.3 V 162.8 A 55.5 55.5 0 0 0 142.1 158.8 V 158.3 L 142.5 158.2 C 142.9 158.2 143.1 158.5 143.1 159.2 V 163.7 L 144.1 163.8 H 144.7 V 163.6 A 43.7 43.7 0 0 0 144.5 158.5 L 144.6 158.2 L 145 158 L 145.4 158.1 H 145.5 C 145.5 159.9 145.5 162.1 145.7 165.1 L 145.9 169.6 L 145.7 170 L 145.2 170.1 Z M 152.2 170.2 L 151.7 170.1 A 0.6 0.6 0 0 1 151.5 169.7 V 168.8 V 168.5 V 167.3 L 151.4 166.2 A 92.8 92.8 0 0 1 151.4 160.2 V 159.4 C 151.4 158.5 151.7 158.1 152.2 158.1 L 153.5 158.4 C 154.1 158.5 154.3 158.7 154.3 158.9 L 154.2 159.3 L 153.8 159.5 L 152.4 159.1 A 12.5 12.5 0 0 1 152.4 161.2 V 162.8 H 153.1 C 153.7 162.8 154 162.9 154 163.2 L 153.8 163.6 L 153.4 163.7 H 152.4 A 19.3 19.3 0 0 1 152.4 166.7 A 36.6 36.6 0 0 0 152.4 169.3 H 153.8 C 154.2 169.3 154.4 169.4 154.4 169.7 C 154.4 169.9 154.4 170 154.2 170.1 A 1 1 0 0 1 153.7 170.2 H 152 Z M 157.3 170 C 156.3 170 155.8 169.8 155.8 169.4 C 155.8 169.2 155.9 169 156.3 169 H 157 V 168.6 A 19.1 19.1 0 0 0 156.9 166.1 A 77.1 77.1 0 0 1 156.7 161.1 V 160.1 V 159.1 A 2 2 0 0 1 156.3 159.2 C 156 159.2 155.9 159.1 155.9 158.8 C 155.9 158.6 155.9 158.5 156.1 158.4 L 156.8 158.2 L 158.1 158 C 158.2 158 158.4 158 158.5 158.2 L 158.6 158.5 L 158.5 158.9 L 158.2 159 H 157.5 V 159.4 A 93.8 93.8 0 0 0 157.9 168.2 V 168.9 H 158.2 C 158.7 168.9 159 169.1 159 169.5 V 169.6 L 158.6 169.9 H 158.4 H 157.3 Z M 161.5 169.7 V 169 V 167.7 A 77.3 77.3 0 0 1 161 159 C 160.3 159 159.8 158.9 159.6 158.7 L 159.4 158.4 S 159.4 158.2 159.6 158.2 L 160 158 L 161.2 158.1 L 162.4 158.2 H 162.7 C 163.1 158.2 163.3 158.4 163.3 158.6 S 163.3 158.9 163.1 159 L 162.7 159.1 A 3 3 0 0 1 162.2 159.1 L 161.9 159 V 159.2 C 161.9 160.2 161.9 162 162.1 164.2 A 62.8 62.8 0 0 1 162.2 169.8 L 161.8 169.9 L 161.5 169.7 Z M 168.3 170 C 167.9 170 167.6 169 167.6 167 V 165 L 167.7 164.7 L 167.6 164.5 H 166.7 L 166.1 164.4 V 166.4 A 30.8 30.8 0 0 0 166.2 169.4 L 166.1 169.9 L 165.7 170.1 C 165.5 170.1 165.3 169.8 165.2 169.4 A 9 9 0 0 1 165.1 167.6 V 166.2 V 164.2 V 162.7 A 55.5 55.5 0 0 0 165.1 158.7 L 165.2 158.2 L 165.6 158.1 C 165.9 158.1 166.1 158.4 166.1 159.1 V 163.6 L 167.1 163.7 H 167.7 V 163.5 A 43.7 43.7 0 0 0 167.5 158.4 L 167.6 158.1 L 168 157.9 L 168.4 158 H 168.5 L 168.7 165 L 168.9 169.5 C 168.9 169.6 168.9 169.8 168.7 169.9 L 168.3 170 Z M 171.9 170.2 L 171.4 170.1 A 0.6 0.6 0 0 1 171.2 169.7 V 168.8 V 168.5 V 166.2 A 92.8 92.8 0 0 1 171.2 160.2 V 159.4 C 171.2 158.5 171.4 158.1 171.9 158.1 L 173.3 158.4 C 173.8 158.5 174.1 158.7 174.1 158.9 L 173.9 159.3 L 173.6 159.5 L 172.2 159.1 A 12.5 12.5 0 0 1 172.2 161.2 V 162.8 H 172.8 C 173.4 162.8 173.7 162.9 173.7 163.2 C 173.7 163.4 173.7 163.5 173.5 163.6 L 173.1 163.7 H 172.2 A 19.3 19.3 0 0 1 172.2 166.7 A 36.6 36.6 0 0 0 172.2 169.3 H 173.5 C 174 169.3 174.2 169.4 174.2 169.7 C 174.2 169.9 174.2 170 173.9 170.1 A 1 1 0 0 1 173.4 170.2 H 172 Z M 179.3 170.3 C 179.1 170.3 178.8 170 178.6 169.4 C 178.3 168.8 178.2 168.2 178 167.5 V 166.9 L 177.2 163.9 H 177 V 165.9 C 177 167.5 177.1 168.8 177.4 169.7 L 177.2 170.2 H 176.7 L 176.4 169.9 V 168.7 A 110 110 0 0 0 176.1 158.9 C 176.1 158.3 176.3 157.9 176.7 157.9 C 177.4 157.9 177.9 158.2 178.3 158.5 C 178.7 158.8 178.9 159.3 178.9 159.9 V 161.8 L 178.6 162.3 L 178.3 163 L 178 163.5 L 178.1 164 L 178.4 165.2 A 28.3 28.3 0 0 0 179.4 169.1 L 179.5 169.3 C 179.7 169.5 179.7 169.7 179.7 169.9 L 179.6 170.2 L 179.3 170.3 Z M 177.1 163.1 C 177.4 163 177.6 162.6 177.8 162.1 L 178.1 160.4 C 178.1 160 178.1 159.6 177.9 159.3 C 177.9 159.1 177.7 158.9 177.6 158.8 A 0.8 0.8 0 0 0 177.1 158.7 V 163.1 Z M 182.8 170.3 C 182.7 170.3 182.5 170.3 182.4 170.1 A 0.7 0.7 0 0 1 182.2 169.6 L 182.4 169.2 C 182.6 169 182.7 168.9 182.9 168.9 S 183.2 169 183.4 169.2 L 183.6 169.6 C 183.6 169.8 183.5 170 183.3 170.1 L 182.8 170.3 Z" stroke="#FF0000" stroke-width="1" fill="none"/>
</svg>