<svg xmlns="http://www.w3.org/2000/svg" viewBox="0 0 68.5 238">
  <path d="M 1 135 V 230.5 L 3.5 234.5 L 7.5 236 L 11 237 H 52 H 54.5 L 61.5 236 H 64 L 65.5 234.5 L 66.5 233 L 67.5 230.5 V 206 L 66.5 135 L 65.5 129 L 64 121.5 L 62.5 115 L 60.5 107.5 L 57.5 99.5 L 53 89.5 L 50 80.5 L 47.5 70 L 45.5 63 L 44.5 55.5 V 12 L 45.5 10.5 V 8.5 L 44.5 4.5 V 1 H 42 H 24 V 4.5 L 23 6.5 V 15 L 24 18 V 22.5 L 23 28.5 V 44.5 V 54 L 22 59.5 L 21 66 L 19 75.5 L 17.5 83 L 15 89.5 L 12.5 95 L 10.5 99.5 L 8.5 104.5 L 6.5 108.5 L 3.5 118.5 L 2 126 L 1 135 Z" stroke="#FF0000" stroke-width="1" fill="none"/>
</svg>