<?xml version="1.0" encoding="utf-8"?>
<svg viewBox="0 0 500 500" xmlns="http://www.w3.org/2000/svg">
  <path style="fill: rgb(216, 216, 216); stroke: rgb(0, 0, 0);" d="M 139.574 52.13 C 127.11 52.13 137.535 63.137 131.726 68.946 C 126.716 73.957 124.687 77.791 117.713 81.278 C 112.511 83.879 106.872 82.494 101.457 85.202 C 97.571 87.145 90.539 83.788 87.444 86.883 C 86.088 88.24 81.902 86.82 80.717 88.004 C 78.748 89.974 74.897 93.265 72.87 95.291 C 71.14 97.022 65.877 103.166 68.386 108.184 C 73.542 118.497 75.505 132.119 84.081 140.695 C 86.66 143.275 91.225 140.904 94.17 142.377 C 111.385 150.984 123.527 129.308 144.058 139.574 C 149.809 142.45 153.231 155.677 155.83 160.874 C 158.649 166.514 158.445 178.251 156.39 184.417 C 153.822 192.121 153.875 213.306 156.39 220.852 C 157.513 224.222 155.828 228.694 156.951 232.063 C 162.872 249.827 159.444 270.372 165.359 288.117 C 167.501 294.542 169.991 303.399 173.767 307.175 C 175.989 309.397 175.273 316.003 176.009 318.946 C 178.481 328.835 181.748 338.967 184.978 348.655 C 186.341 352.746 184.566 358.446 183.296 360.987 C 181.664 364.25 182.683 368.938 181.054 372.197 C 178.107 378.091 172.722 381.651 168.722 385.65 C 166.77 387.602 166.627 391.463 164.798 392.377 C 159.71 394.921 159.647 409.087 163.117 412.556 C 165.582 415.021 170.972 413.12 174.327 414.798 C 179.919 417.594 198.361 418.476 204.596 415.359 C 207.591 413.861 203.743 404.734 205.157 401.906 C 207.945 396.33 217.142 395.312 219.731 390.135 C 219.908 389.781 223.798 384.39 224.215 384.529 C 225.554 384.975 226.327 386.341 227.578 385.09 C 230.195 382.474 231.083 379.201 233.184 375 C 241.4 358.568 221.973 344.873 221.973 330.157 C 221.973 319.753 223.595 312.9 227.578 304.933 C 228.686 302.719 229.383 298.425 230.942 297.646 C 233.267 296.483 234.368 289.55 239.35 292.04 C 243.719 294.225 244.127 297.378 247.758 301.009 C 252.992 306.243 265.034 305.393 269.619 309.978 C 270.358 310.717 275.745 309.978 276.906 309.978 C 280.807 309.978 294.224 308.547 298.206 310.538 C 300.332 311.601 300.168 314.462 301.009 316.144 C 305.247 324.619 296.237 337.989 301.009 347.534 C 307.655 360.826 323.197 364.677 331.839 373.318 C 332.527 374.007 332.062 376.23 332.399 377.242 C 336.967 390.946 325.239 392.25 318.946 398.543 C 318.227 399.262 316.056 406.864 317.265 408.072 C 319.478 410.285 331.29 408.632 335.202 408.632 C 352.387 408.632 377.289 411.412 389.574 405.269 C 390.639 404.736 389.936 402.665 390.695 401.906 C 395.836 396.764 392.961 387.868 397.982 382.848 C 405.957 374.873 425.861 383.045 432.735 373.879 C 437.713 367.242 440.449 350.444 442.265 341.368 C 443.434 335.523 445.451 329.565 447.309 323.991 C 449.026 318.842 447.348 312.59 448.431 307.175 C 451.28 292.927 451.794 278.259 451.794 263.453 C 451.794 251.546 448.83 242.631 446.188 232.063 C 445.698 230.103 445.361 226.19 443.946 224.776 C 434.458 215.287 424.024 210.05 411.996 204.036 C 405.03 200.553 388.683 207.169 385.09 210.762 C 382.837 213.016 379.771 212.417 378.924 215.807 C 378.605 217.081 375.731 225.507 377.242 227.018 C 379.463 229.239 385.449 226.256 387.332 228.139 C 389.309 230.116 393.008 231.012 395.179 233.184 C 409.691 247.696 415.919 270.966 415.919 290.919 C 415.919 310.341 404.109 320.367 389.013 327.915 C 385.586 329.629 373.984 336.428 369.955 332.399 C 365.678 328.122 364.503 322.056 361.547 316.144 C 358.856 310.762 364.238 301.345 361.547 295.964 C 359.902 292.673 362.6 287.419 360.987 284.193 C 358.457 279.133 362.335 271.195 359.865 266.256 C 357.984 262.492 359.305 254.912 359.305 250.561 C 359.305 239.169 360.153 222.549 355.381 213.005 C 351.188 204.618 347.429 195.973 341.368 188.901 C 331.369 177.236 317.68 170.819 307.735 160.874 C 299.578 152.717 294.51 147.032 285.314 140.135 C 279.985 136.138 270.546 134.896 266.256 130.605 C 261.581 125.931 252.82 120.524 246.076 117.152 C 240.95 114.59 238.747 105.899 234.865 102.018 C 228.281 95.433 217.455 88.497 213.565 80.717 C 211.439 76.465 205.033 74.863 202.915 70.628 C 201.884 68.566 199.191 65.783 197.87 64.462 C 195.177 61.769 195.275 55.701 192.825 53.251 C 187.569 47.995 177.455 46.446 169.283 43.722 C 166.19 42.691 159.012 43.541 156.951 41.48 C 156.092 40.622 146.131 41.089 145.179 42.04 C 142.232 44.988 138.719 47.94 135.09 51.57"/>
</svg>